<?xml version="1.0" standalone="no"?>
<!DOCTYPE svg PUBLIC "-//W3C//DTD SVG 1.1//EN" "http://www.w3.org/Graphics/SVG/1.1/DTD/svg11.dtd" >
<svg xmlns="http://www.w3.org/2000/svg" xmlns:xlink="http://www.w3.org/1999/xlink" version="1.1">
<metadata></metadata>
<defs>
<font id="wonderhandcond_20_bold" horiz-adv-x="892" >
<font-face units-per-em="2048" ascent="1237" descent="-811" />
<missing-glyph horiz-adv-x="368" />
<glyph unicode="&#xfb01;" horiz-adv-x="1019" d="M-371 -954q0 33 8.5 78t27 108t36.5 119.5t52 146.5t57.5 151.5t68.5 171t69.5 167t76 179.5t71.5 173q115 270 205 469t190.5 393.5t182.5 297t139 102.5q35 0 56.5 -25t21.5 -64q0 -68 -60 -210q-84 -199 -261 -446t-396 -480l-24 -58l-109 -258q20 -4 35 -4 q256 0 573 357l37 -31l-37 31q119 135 193 252l49 -29q-147 -252 -215 -414q-43 -100 -43 -155q0 -39 31 -39q57 0 194 109.5t295 277.5l41 -41q-166 -176 -311.5 -290t-218.5 -114q-41 0 -65 28t-24 69q0 66 48 176q20 55 49 110q-319 -354 -596 -354h-6q12 -57 12 -152 q0 -303 -115 -571q-53 -123 -129 -226.5t-137 -103.5q-33 0 -52.5 29t-19.5 70zM-313 -954q0 -41 14 -41q37 0 102.5 93.5t112.5 199.5q109 268 109 550q0 90 -13 144q-326 -778 -325 -946zM244 537q397 453 534 786q55 133 56 190q-1 31 -21 31q-66 0 -221.5 -283.5 t-347.5 -723.5zM981 983q4 6 33 71.5t33 71.5l49 -28q0 -2 -31 -71t-35 -77z" />
<glyph unicode="&#xfb02;" horiz-adv-x="997" d="M-371 -954q0 33 8.5 78t27 108t36.5 119.5t52 146.5t57.5 151.5t68.5 171t69.5 167t76 179.5t71.5 173q115 270 205 469t190.5 393.5t182.5 297t139 102.5q35 0 56.5 -25t21.5 -64q0 -68 -60 -210q-84 -199 -261 -446t-396 -480l-24 -58l-109 -258q20 -4 35 -4 q254 0 571 353q53 160 197 503q276 707 436 707q35 0 54.5 -27.5t19.5 -66.5q0 -96 -84 -291q-86 -201 -243 -439.5t-331 -416.5q-72 -211 -71 -299q0 -51 22 -51q55 0 196.5 112.5t284.5 272.5l41 -37q-150 -170 -300 -288t-222 -118q-37 0 -58.5 31t-21.5 78q0 72 39 205 q-285 -285 -530 -285h-6q12 -57 12 -152q0 -303 -115 -571q-53 -123 -129 -226.5t-137 -103.5q-33 0 -52.5 29t-19.5 70zM-313 -954q0 -41 14 -41q37 0 102.5 93.5t112.5 199.5q109 268 109 550q0 90 -13 144q-326 -778 -325 -946zM244 537q397 453 534 786q55 133 56 190 q-1 31 -21 31q-66 0 -221.5 -283.5t-347.5 -723.5zM745 518q150 170 276 369.5t196 369.5q80 182 79 269q0 37 -16 37q-29 0 -79 -62.5t-132 -221.5t-172 -386q-98 -236 -152 -375z" />
<glyph horiz-adv-x="0" />
<glyph horiz-adv-x="682" />
<glyph unicode=" "  horiz-adv-x="368" />
<glyph unicode="&#x09;" horiz-adv-x="368" />
<glyph unicode="&#xa0;" horiz-adv-x="368" />
<glyph unicode="!" horiz-adv-x="311" d="M31 31q0 35 36 68.5t87 33.5v-22q37 -14 36 -48q0 -29 -30.5 -59.5t-69.5 -30.5q-25 0 -42 18.5t-17 39.5zM88 31h2q31 0 41 26v15q-18 -4 -30.5 -17.5t-12.5 -23.5zM184 317l379 906l53 -21l-378 -905z" />
<glyph unicode="&#x22;" horiz-adv-x="630" d="M496 1151q92 51 169.5 198.5t67.5 211.5l55 8q14 -80 -71.5 -244t-194.5 -223zM684 1192q92 51 180 191.5t101 226.5l57 -8q-14 -94 -110.5 -248t-198.5 -211z" />
<glyph unicode="#" horiz-adv-x="667" d="M23 -12l155 237h-74v58h113l76 118l-86 -2v58l125 2l178 270l47 -33l-156 -237l146 2l164 268l49 -29l-148 -239l111 2v-57l-145 -3l-74 -116h112v-58l-147 -2l-201 -325l-47 28l182 297h-155l-178 -272zM287 285h153l72 118l-147 -2z" />
<glyph unicode="$" horiz-adv-x="636" d="M68 92q0 39 14 74l53 -21q-10 -35 -10 -53q0 -66 117 -65l137 325q-104 70 -105 148q0 25 15 61q25 57 93.5 97t143.5 47l37 88l53 -23l-28 -70q57 -14 82 -63q26 33 53 45l27 -53q-43 -20 -72 -88l-25 10l-30 8q2 8 2 23q0 57 -60 63l-116 -272q100 -80 100 -158 t-78 -154.5t-190 -89.5l-43 -102l-54 22l33 80q-72 4 -110.5 38t-38.5 83zM307 33q82 18 133.5 72.5t51.5 109.5q0 53 -64 102zM332 500q0 -45 69 -94l99 237q-125 -27 -158 -104q-10 -19 -10 -39z" />
<glyph unicode="%" horiz-adv-x="606" d="M61 -35l619 856l47 -33l-618 -856zM274 602q0 33 34 70t81 37v-23q35 -14 35 -45q0 -29 -29.5 -60.5t-66.5 -31.5q-25 0 -39.5 17.5t-14.5 35.5zM332 23q0 35 34.5 70.5t79.5 35.5v-23q35 -14 35 -47q0 -29 -29.5 -59.5t-64.5 -30.5q-23 0 -39 16.5t-16 37.5zM332 606 q12 2 23.5 14.5t11.5 20.5l2 -2v8q-33 -12 -37 -41zM389 27q12 2 23.5 13t11.5 19l2 -6v15q-33 -12 -37 -41z" />
<glyph unicode="&#x26;" horiz-adv-x="1345" d="M207 160q0 49 31 131q45 102 152.5 201.5t275.5 220.5v14q0 137 41 242q41 96 132 156.5t171 60.5q49 0 84.5 -25.5t35.5 -70.5q0 -18 -12 -60q-4 -14 -13 -29.5t-25.5 -33t-31 -32.5t-41 -36.5t-45 -37t-53.5 -41t-56.5 -42t-63 -47.5t-64.5 -47q0 -27 8 -76 q123 88 250 88q90 0 141.5 -49t51.5 -123q0 -57 -29 -125q-47 -117 -184 -233q108 -88 227 -88v-58q-150 0 -272 111q-211 -160 -429 -160q-129 0 -205.5 48.5t-76.5 140.5zM264 160q0 -131 225 -131q188 0 388 141q-125 135 -181 332q-111 -106 -155 -232l-56 19 q61 158 197 278q-8 37 -12 78q-315 -225 -379 -375q-27 -65 -27 -110zM723 754q252 188 299 237q33 33 41 58q10 23 10 41q0 38 -63.5 38t-140 -51t-109.5 -131v2q-33 -92 -37 -194zM743 545q49 -205 177 -340q125 102 176 217q23 51 22 102q0 115 -135 115q-125 0 -240 -94 z" />
<glyph unicode="'" horiz-adv-x="339" d="M457 1153q104 49 185 191.5t73 216.5l57 8q10 -90 -80 -250t-211 -219z" />
<glyph unicode="(" horiz-adv-x="495" d="M115 -57q0 279 141 616q109 260 270.5 512t331.5 424l41 -41q-166 -168 -323.5 -413.5t-266.5 -501.5q-137 -322 -137 -596q0 -136 39 -240l-55 -20q-41 115 -41 260z" />
<glyph unicode=")" horiz-adv-x="495" d="M-96 -285q199 166 357.5 390.5t254.5 453.5q186 444 186 791q0 43 -8 120l58 9q8 -78 8 -129q0 -352 -191 -811q-98 -236 -260.5 -466.5t-365.5 -402.5z" />
<glyph unicode="*" horiz-adv-x="645" d="M377 893l287 197l-91 237l54 21l73 -193l140 330l53 -21l-131 -307l254 172l33 -47l-316 -215l94 -246l-53 -20l-78 200l-133 -315l-53 21l123 290l-223 -153z" />
<glyph unicode="+" horiz-adv-x="634" d="M188 315v58h189l98 233l53 -20l-90 -213h166v-58h-188l-92 -217l-54 21l82 196h-164z" />
<glyph unicode="," horiz-adv-x="180" d="M-299 -252q233 158 371 402l49 -29q-145 -258 -387 -422z" />
<glyph unicode="-" horiz-adv-x="569" d="M152 360v58h350v-58h-350z" />
<glyph unicode="." horiz-adv-x="342" d="M35 31q0 35 36 68.5t85 33.5v-22q39 -12 39 -48q0 -29 -31 -59.5t-70 -30.5q-27 0 -43 18.5t-16 39.5zM92 31h2q31 0 41 26v17q-18 -6 -30.5 -19.5t-12.5 -23.5z" />
<glyph unicode="/" horiz-adv-x="409" d="M-156 -354l1149 1972l49 -29l-1148 -1972z" />
<glyph unicode="0" horiz-adv-x="559" d="M76 131q0 86 47 203q59 141 139 225t131 98l2 -6q66 58 129 58q53 0 85 -40t32 -104q0 -94 -65.5 -249.5t-171 -250t-195.5 -94.5q-61 0 -97 45t-36 115zM133 131q0 -102 76 -102q72 0 164 84t151 225q59 139 60 227q0 86 -60 86q-31 0 -63.5 -20.5t-42.5 -40.5l-19 8 q-45 -18 -108.5 -91t-114.5 -194q-43 -100 -43 -182z" />
<glyph unicode="1" horiz-adv-x="274" d="M94 12l166 379q-31 -29 -80 -51l-24 51q39 20 60.5 36.5t67.5 81t101 175.5l51 -25q-250 -586 -289 -671z" />
<glyph unicode="2" horiz-adv-x="634" d="M6 39q0 10 6 29q27 68 103 67q37 0 94 -31q106 88 219 216.5t147 207.5q12 29 13 54q0 41 -58 41q-14 0 -18 -2q-35 -2 -65.5 -15.5t-36.5 -25.5l-52 26l31 72l53 -23l2 9q35 12 58 14q10 2 28 2q45 0 80 -24.5t35 -73.5q0 -29 -16 -74q-35 -84 -145.5 -212t-223.5 -222 q74 -43 119 -43q94 0 131 92l53 -21q-23 -55 -72 -92t-112 -37q-70 0 -170 62q-86 -63 -129 -64q-29 0 -51.5 20.5t-22.5 47.5zM63 39q1 -10 17 -10q25 0 78 37q-23 12 -43 12q-35 0 -49 -29q-2 -6 -3 -10z" />
<glyph unicode="3" horiz-adv-x="622" d="M-10 106q0 47 18 107l55 -16q-16 -55 -16 -91q0 -141 164 -141q92 0 184 67.5t137 170.5q10 23 11 53q0 57 -47 86q-59 -27 -115 -27q-31 0 -56.5 13.5t-25.5 38.5q0 23 35 37t82 14q43 0 78 -12q78 45 110 124v-2q8 23 8 41q0 49 -75 49q-106 0 -164 -86l-2 -2l-2 -2 l-29 19l-21 12l3 4q35 74 34 109q0 6 -2 12l54 21q6 -18 6 -33q0 -8 -4 -29q66 33 127 33t97 -31t36 -76q-1 -20 -13 -61q-35 -82 -108 -135q51 -47 51 -117q0 -37 -16 -76q-49 -117 -157 -194.5t-216 -77.5q-98 0 -159.5 54t-61.5 144z" />
<glyph unicode="4" horiz-adv-x="587" d="M-18 -10q0 18 24.5 32.5t54.5 14.5h2q78 84 215.5 364.5t188.5 436.5l55 -17q-51 -158 -171 -409.5t-218 -374.5l203 -6l268 633l53 -23l-260 -610l142 -2v-58l-166 2l-62 -137l-51 25l51 114q-184 4 -231 5q-33 -27 -55 -27q-14 0 -28.5 11t-14.5 26z" />
<glyph unicode="5" horiz-adv-x="610" d="M10 166q0 35 6 67l58 -10q-6 -31 -6 -57q0 -80 37.5 -131t113.5 -51q84 0 169 64.5t124 156.5q31 70 31 125q0 74 -76 73q-115 0 -195 -104l-22 18l-27 11q35 76 102.5 235.5t67.5 161.5h361v-57h-324q-31 -76 -102 -248q72 41 139 41q57 0 95 -36t38 -95.5t-35 -147.5 q-45 -106 -144 -181t-201.5 -75t-156 71t-53.5 169z" />
<glyph unicode="6" horiz-adv-x="567" d="M70 129q0 76 47 188q78 184 252 352.5t305 225.5l24 -51q-127 -55 -290.5 -214t-237.5 -335q-43 -94 -43 -166q0 -86 76 -98q27 61 62.5 126.5t98 134t115.5 68.5q33 0 54.5 -22.5t21.5 -52.5q0 -35 -23 -90q-37 -86 -121.5 -155t-181.5 -69q-72 0 -115.5 42t-43.5 116z M268 33q68 14 126 67t85 119q18 35 19 66q0 18 -19 18q-47 0 -106.5 -87t-104.5 -183z" />
<glyph unicode="7" horiz-adv-x="536" d="M-104 -371q53 55 123.5 143.5t155.5 208t144.5 206.5t150.5 224.5t118 176.5l-23 -2q-29 0 -85 8t-81 8q-8 0 -37 -4h3q-61 -10 -99 -74l-2 -4l-2 -2l-18 10l-33 15l68 164l53 -23l-17 -41q18 8 37 12h2q29 4 45 4q31 0 87.5 -8t78.5 -8q47 0 78 23l16 -25l25 -16 q-18 -27 -196.5 -292t-316.5 -455.5t-234 -287.5z" />
<glyph unicode="8" horiz-adv-x="559" d="M31 70q0 31 17.5 59.5t61.5 64t71.5 54t97.5 61.5q14 10 22 15q-92 109 -92 178q0 31 10 51q25 59 116 110.5t175 51.5v-58q-70 0 -144.5 -41t-93.5 -86q-6 -14 -6 -28q0 -49 80 -144l4 -4l2 2q4 0 4 2q238 143 283 256q8 16 8 41q0 68 -33 88l29 50q61 -37 62 -138 q0 -27 -13 -63q-53 -129 -305 -283l-4 -2q76 -109 76 -166q0 -72 -75 -124t-185 -52q-70 0 -119 27.5t-49 77.5zM88 70q0 -47 111 -47q90 0 146 34.5t56 83.5q0 41 -67 135q-182 -117 -217 -153q-29 -31 -29 -53z" />
<glyph unicode="9" horiz-adv-x="577" d="M80 188q0 37 20 93q70 164 225.5 279.5t295.5 115.5q31 0 59 -6l-6 -23l8 -4l33 -14q-20 -45 -33 -70q-25 -53 -118 -299t-176 -418t-167 -262l-43 39q137 145 340 682q-174 -219 -321 -219q-55 0 -86 30.5t-31 75.5zM137 188q1 -49 60 -49q106 0 226 136.5t208 310.5 l14 30q-8 2 -24 2q-123 0 -263.5 -105t-203.5 -255q-16 -35 -17 -70z" />
<glyph unicode=":" horiz-adv-x="303" d="M25 31q0 33 36.5 67.5t85.5 34.5v-22q39 -14 39 -48q0 -31 -31.5 -60.5t-68.5 -29.5q-27 0 -44 18.5t-17 39.5zM82 31h4q31 0 41 26v17q-18 -6 -31.5 -19.5t-13.5 -23.5zM233 524q0 33 36 68t87 35v-23q37 -14 37 -47q0 -31 -31.5 -60.5t-68.5 -29.5q-27 0 -43.5 18.5 t-16.5 38.5zM291 524h2q31 0 41 27v14q-18 -6 -30.5 -18t-12.5 -23z" />
<glyph unicode=";" horiz-adv-x="256" d="M-223 -252q236 160 368 402l52 -29q-145 -258 -387 -422zM266 578q0 39 40 78.5t95 39.5v-26q37 -16 37 -52q0 -31 -34.5 -65.5t-75.5 -34.5q-27 0 -44.5 18.5t-17.5 41.5zM324 575h4q18 0 34.5 15.5t18.5 25.5h-4v19q-23 -8 -38 -25.5t-15 -31.5v-3z" />
<glyph unicode="&#x3c;" horiz-adv-x="604" d="M135 326l518 317l31 -49l-461 -281l234 -276l-43 -37z" />
<glyph unicode="=" horiz-adv-x="628" d="M129 172v57h395v-57h-395zM215 403v58h420v-58h-420z" />
<glyph unicode="&#x3e;" horiz-adv-x="604" d="M37 43l483 285l-221 272l45 37l262 -326l-540 -317z" />
<glyph unicode="?" horiz-adv-x="464" d="M55 27q0 33 34 69.5t79 36.5v-22q33 -12 33 -45q0 -29 -29 -61t-63 -32q-23 0 -38.5 16.5t-15.5 37.5zM113 31q10 2 20 14.5t10 20.5l7 -7v13q-33 -12 -37 -41zM197 313q51 121 292.5 396.5t288.5 386.5l8 28q0 6 2 15l3 14q0 55 -66 55q-59 0 -140 -53t-149 -154l-47 33 q76 113 168 172.5t168 59.5q51 0 87 -32t36 -81q0 -14 -4 -39q0 -4 -13 -39q-43 -100 -168.5 -249.5t-249.5 -295t-163 -237.5z" />
<glyph unicode="@" horiz-adv-x="1390" d="M6 10q0 125 72 299q131 311 405.5 498.5t552.5 187.5q172 0 276.5 -74.5t104.5 -213.5q0 -94 -53 -224q-78 -190 -236.5 -349t-271.5 -159q-55 0 -89 26t-34 73q0 53 39 143q-213 -256 -354 -256q-59 0 -91 37t-32 92q0 70 39 160q74 174 225.5 310t300.5 136 q70 0 131 -28l-24 -54q-47 25 -107 25q-129 0 -267 -125t-208 -287q-33 -74 -33 -137q0 -72 66 -72q88 0 231.5 145.5t306.5 424.5l50 -29q-147 -283 -179 -356q-37 -86 -36 -129q0 -41 65 -41q94 0 237.5 148.5t217.5 322.5q49 113 49 203q0 115 -85 173t-239 58 q-262 0 -521 -177t-384 -472q-68 -158 -68 -279q0 -162 120 -231.5t300 -69.5q215 0 437.5 130t345.5 354l49 -29q-86 -158 -229.5 -276.5t-299 -177t-303.5 -58.5q-92 0 -171 16.5t-150.5 55t-113.5 111.5t-42 175z" />
<glyph unicode="A" horiz-adv-x="2416" d="M274 276q0 113 43 222l54 -21q-39 -106 -39 -201q0 -154 95 -250t292 -96q274 0 491 126t490 456q-135 16 -205 70.5t-70 124.5q0 90 98.5 166.5t227.5 76.5q121 0 221 -69q209 303 336 479t256 332t220 222q88 64 161 64h4v-28l25 -15q-160 -264 -504 -1124 q166 127 240 270l49 -26q-94 -186 -328 -340q-201 -512 -274 -723l-29 10l-27 10l2 4q39 162 39 301q0 131 -31 242q-160 -51 -319 -51h-23q-291 -356 -524 -495.5t-526 -139.5q-219 0 -332 115.5t-113 287.5zM1483 707q0 -55 62.5 -94.5t197.5 -45.5q57 68 127 162l72 105 q-82 59 -191 59q-111 0 -189.5 -59t-78.5 -127zM1817 565q137 2 278 49q-39 113 -108 183l-70 -101zM2017 842q82 -76 131 -209q117 43 238 117q332 842 510 1161q-123 -45 -319.5 -290t-559.5 -779zM2165 578q35 -124 35 -261l-2 -43l151 390q-86 -49 -184 -86z" />
<glyph unicode="B" horiz-adv-x="1830" d="M444 35q0 84 162 454q205 461 459 832q96 303 96 455q0 90 -33 120l39 43q52 -49 52 -166q0 -114 -54 -315q420 549 774 549q156 0 233 -84t77 -215q0 -125 -66 -287q-51 -123 -137 -234.5t-188 -187.5q47 -76 47 -184q0 -143 -78 -330q-96 -227 -267 -380.5t-358 -153.5 q-154 0 -228.5 106.5t-74.5 268.5q0 88 19 176l26 -6l27 10q31 -76 144.5 -136.5t270.5 -60.5q113 0 238 33l14 -53q-125 -37 -252 -37q-141 0 -251.5 47t-171.5 119q-6 -49 -7 -92q0 -145 59.5 -231.5t186.5 -86.5q168 0 324.5 143.5t247.5 356.5q73 166 73 303 q0 96 -37 158q-121 -80 -239 -80q-61 0 -100 32.5t-39 73.5q0 47 50 85t134 38q133 0 205 -76q205 152 309 400q61 145 61 266q0 242 -252 242q-369 0 -821 -654q-96 -297 -276 -704q-111 -266 -209 -435t-148 -169q-16 0 -28.5 15t-12.5 32zM506 68q124 167 282 546 q106 240 199 482q-188 -307 -330 -629q-133 -309 -151 -399zM1489 995q0 -18 21.5 -33.5t60.5 -15.5q94 0 203 66q-55 49 -158 49q-61 0 -94 -20.5t-33 -45.5z" />
<glyph unicode="C" horiz-adv-x="1689" d="M410 475q0 240 139 576q100 242 263 457.5t359.5 357t370.5 141.5q131 0 206 -63.5t91 -169.5q86 36 152 36v-57q-61 0 -148 -41v-2q0 -158 -98 -399q-78 -186 -203 -322.5t-233 -136.5q-53 0 -83 38t-30 91q0 72 39 164q82 193 235.5 355.5t313.5 246.5 q-16 203 -242 203q-240 0 -514 -279.5t-426 -642.5q-135 -315 -135 -553q0 -225 126 -346t382 -121q227 0 458.5 120t387.5 288l41 -41q-160 -172 -405 -298t-482 -126q-276 0 -420.5 140t-144.5 384zM1253 981q0 -72 56 -72q88 0 198.5 125t184.5 299q86 203 94 350 q-147 -86 -285.5 -234.5t-212.5 -326.5q-35 -80 -35 -141z" />
<glyph unicode="D" horiz-adv-x="1787" d="M307 264q0 72 37 166l53 -22q-32 -72 -32 -140q0 -117 96 -184.5t303 -67.5q309 0 644 290t536 765l18 49q-215 -88 -455 -88q-254 0 -417 82l-82 -199q-274 -666 -410 -729l-25 54q53 25 159 221t224 477l84 205q-137 90 -137 248q0 86 43 190q80 190 277.5 312 t406.5 122q233 0 348 -144.5t115 -365.5q0 -127 -37 -278q164 88 285 218t180 273l53 -20q-68 -162 -209 -308.5t-331 -238.5q-18 -57 -37 -100q-137 -326 -348 -578t-441.5 -383t-443.5 -131q-227 0 -342 85t-115 220zM1063 1196q197 471 293 520l26 -49q-74 -37 -270 -502 q145 -75 395 -75q254 0 480 102q49 158 49 313q0 203 -98.5 328t-307.5 125q-193 0 -375 -111.5t-256 -285.5q-38 -86 -38 -166q0 -123 102 -199z" />
<glyph unicode="E" horiz-adv-x="1429" d="M307 340q0 133 70 301q61 158 206.5 322.5t317.5 250.5q-16 43 -16 95q0 100 57 239q74 176 232.5 321.5t330.5 145.5q129 0 195 -94q139 119 268 119v-58q-111 0 -242 -110q23 -57 23 -127q0 -84 -28.5 -151.5t-78 -118t-100.5 -50.5q-45 0 -70.5 28t-25.5 69 q0 68 59.5 172t151.5 190q-49 74 -152 74q-154 0 -298 -134t-212 -298q-53 -121 -53 -217q0 -35 10 -70q117 47 222 47q115 0 175 -29.5t60 -76.5q0 -20 -6 -33q-14 -41 -64.5 -69.5t-128.5 -28.5q-205 0 -284 114q-162 -82 -300.5 -236.5t-195.5 -305.5q-65 -150 -65 -277 q0 -162 107.5 -249t320.5 -87q125 0 259 51.5t237.5 125t170 132t99.5 97.5l45 -37q-37 -41 -105.5 -101.5t-179.5 -139.5t-252 -132t-274 -53q-236 0 -361 104.5t-125 284.5zM979 1188q61 -82 231 -82q117 0 140 61q2 4 2 13q0 12 -15.5 22t-58.5 18.5t-104 8.5 q-96 0 -195 -41zM1503 1522q0 -39 39 -39q31 0 66.5 39t58.5 94q25 49 25 129q0 39 -11 84q-76 -76 -127 -164t-51 -143z" />
<glyph unicode="F" horiz-adv-x="1331" d="M276 152q0 80 43 182q55 131 165 266t256.5 251t336.5 192.5t383 84.5q20 45 50 107.5t47.5 100.5t41 87.5t40 79t35 64.5t32.5 54t29.5 37.5t30 26t26.5 7.5v-58q-18 0 -66.5 -91t-146.5 -298q-35 -76 -55 -117q156 -6 268 -53l-12 -31l12 -22q-49 -29 -95 -89.5 t-50 -101.5l-58 5q4 43 43 102t88 100q-111 33 -225 33q-6 -16 -22.5 -48t-20.5 -42q-102 -209 -198.5 -372t-220.5 -322.5t-261 -247.5t-276 -88q-106 0 -163 56t-57 145zM334 152q0 -143 162 -144q102 0 206.5 59.5t194.5 151.5t184.5 229.5t168 267.5t151.5 290l31 63 q-178 -12 -355.5 -87t-312.5 -184.5t-237.5 -235.5t-153.5 -249q-39 -86 -39 -161zM791 1583q0 51 20 92q51 121 189.5 224.5t310.5 103.5q23 0 67 -4q29 47 88 151l52 -24q-14 -33 -78 -137q92 -16 323 -107q285 -96 447 -96q174 0 338 98l30 -47q-170 -108 -364 -108h-4 q-174 0 -465 98l-2 2q-240 92 -336 108q-119 -184 -255 -321t-259 -137q-45 0 -73.5 30.5t-28.5 73.5zM848 1583q0 -47 45 -47q178 0 450 408l-32 2q-154 0 -278 -92.5t-171 -200.5q-14 -37 -14 -70z" />
<glyph unicode="G" horiz-adv-x="1390" d="M342 553h29l24 14q128 -237 470 -237h3q135 0 262 51l23 -55q-141 -53 -285 -54q-309 0 -465 183q16 -227 102.5 -337t252.5 -110q322 0 577 436q74 125 203 412q-215 -231 -395 -231q-131 0 -201 77.5t-70 210.5v15q-57 -6 -118 -6v57q66 0 123 6q18 168 114 397 q104 248 284.5 442.5t371.5 194.5q109 0 169 -63.5t60 -165.5q0 -96 -51 -217q-80 -195 -320.5 -392.5t-574.5 -246.5v-21q0 -231 213 -231q39 0 83 15.5t78.5 34t78.5 57t71 63.5t69 73t56 66.5t51 65.5l37 49l27 -21l20 -14q-35 -49 -89 -163.5t-105.5 -232.5t-131 -252 t-164.5 -235.5t-207 -169t-259 -67.5q-410 0 -416 602zM934 993q311 49 536.5 233.5t301.5 366.5q47 106 47 197q0 172 -170 172t-338.5 -182t-266.5 -418q-92 -211 -110 -369z" />
<glyph unicode="H" horiz-adv-x="1757" d="M305 96q0 57 29 131q102 250 270 360.5t393 139.5q195 485 195 827q0 362 -236 363v57q147 0 220 -115.5t73 -304.5q0 -352 -188 -821l84 4q70 2 228.5 4t232.5 7l63 157q166 401 367.5 648t423.5 255q47 123 106 213l47 -30q-55 -87 -94 -185q115 -12 178.5 -73.5 t63.5 -149.5q0 -51 -23 -108q-43 -92 -107.5 -152.5t-136.5 -62.5q-57 2 -87.5 53t-30.5 127q0 135 61 309q-193 -20 -376 -256t-339 -610q-31 -70 -53 -131q158 16 219 65l35 -45q-78 -63 -276 -80q-121 -346 -121 -561q0 -90 22 -102l-32 -49q-47 35 -48 151 q0 217 117 557q-78 -4 -233.5 -5t-204.5 -3l-111 -6q-129 -309 -287.5 -516t-287.5 -207q-72 0 -114 41t-42 104zM362 96q1 -88 99 -88q109 0 248 186.5t262 471.5q-201 -29 -346.5 -132.5t-237.5 -328.5q-25 -55 -25 -109zM2433 1440q0 -121 61 -123q109 6 193 180 q16 41 16 86q0 72 -52 117t-152 51q-66 -180 -66 -311z" />
<glyph unicode="I" horiz-adv-x="1564" d="M301 340q0 96 35 203l29 -8l26 8q29 -90 154 -152.5t303 -62.5q182 0 319 59l25 -51q-150 -66 -344 -66q-162 0 -288 52.5t-187 134.5q-14 -59 -15 -117q0 -164 113 -249t279 -85q227 0 378.5 148.5t262.5 416.5q-82 -16 -183 -16q-193 0 -329 67.5t-136 188.5 q0 39 21 90q47 109 205.5 247t416.5 327q27 20 85.5 63t86 64.5t79 60.5t80 61.5t69.5 56.5t65.5 57.5t53 50t47 49t33.5 42.5l49 -30q-104 -166 -285.5 -648.5t-261.5 -652.5q301 82 385 283l53 -23q-51 -123 -177 -205.5t-290 -119.5q-117 -297 -284.5 -466t-423.5 -169 q-184 0 -316.5 101.5t-132.5 289.5zM801 811q0 -90 117.5 -144.5t289.5 -54.5q111 0 207 21l4 8q88 188 238.5 589.5t224.5 557.5q-113 -98 -461 -358q-260 -193 -410.5 -323t-193.5 -228q-16 -33 -16 -68z" />
<glyph unicode="J" horiz-adv-x="1513" d="M473 -592q0 78 59 219q90 217 305.5 448.5t448.5 340.5l82 319q-262 -114 -521 -114h-5q-154 0 -257.5 63.5t-103.5 179.5q0 53 27 123q43 104 164 198.5t277.5 174.5t320.5 161t328.5 194.5t267.5 240.5l6 6l2 2l29 -22l16 -15l-16 -20q-137 -188 -273 -484 q-86 -238 -174 -577q160 92 225 213l50 -29q-82 -152 -295 -260l-82 -328q111 41 211 41v-57q-109 0 -228 -51q-98 -385 -168 -576l-2 -2q-109 -258 -231.5 -400t-273.5 -142q-94 0 -141.5 41.5t-47.5 111.5zM530 -592q0 -49 30 -72.5t102 -23.5q129 0 238.5 131t213.5 377 q80 219 154 524q-211 -111 -404.5 -326t-277.5 -411q-55 -131 -56 -199zM622 727q83 -49 220 -49q276 0 544 129q96 385 191 639q66 147 145 287q-113 -90 -267.5 -178.5t-288.5 -153t-261 -132t-218 -144t-126 -158.5q-22 -51 -22 -99q0 -92 83 -141z" />
<glyph unicode="K" horiz-adv-x="1906" d="M760 1493q0 53 33 139q55 137 178 242.5t272 105.5q16 0 45 -4l29 82l55 -16l-29 -80q160 -66 160 -326q0 -154 -53 -354q88 -27 127 -129q293 98 616.5 371.5t391.5 433.5l53 -23q-43 -104 -205 -270t-397.5 -332t-442.5 -235q18 -68 19 -178q0 -86 -9.5 -189.5 t-26.5 -254t-24 -216.5q0 -133 12.5 -235.5t50.5 -206t101.5 -170t172 -108.5t255.5 -42v-57q-160 0 -278.5 47t-188 122t-112.5 186.5t-56.5 221t-13.5 244.5q6 70 23.5 218.5t26.5 252t9 187.5q0 98 -14 161q-92 -25 -160 -26q-29 -86 -71 -189q-225 -530 -394 -876 l-51 24q160 328 391 875q29 68 66 170q-49 8 -79 34.5t-30 61.5q0 12 9 33q18 47 67 75.5t92 28.5h15q51 199 51 344q0 223 -123 273q-100 -250 -225 -392.5t-236 -142.5q-45 0 -73.5 34t-28.5 85zM817 1493q0 -61 45 -61q90 0 201 130t205 359l-25 2q-131 0 -237.5 -94 t-159.5 -217q-29 -70 -29 -119zM1270 1155q0 -37 71 -43q4 16 17.5 58t19.5 65q-29 0 -60.5 -19.5t-43.5 -48.5q-4 -6 -4 -12zM1401 1114q53 2 123 23q-29 70 -88 90q-15 -50 -35 -113z" />
<glyph unicode="L" horiz-adv-x="1486" d="M293 113q0 80 90 147.5t221 67.5q168 0 324 -109q184 223 397 776q-92 -16 -178 -16q-221 0 -351 90t-130 219q0 23 8 60l57 -11q-8 -41 -8 -49q0 -106 111.5 -179t312.5 -73q102 0 203 23q121 324 174 448q100 229 192 354.5t197 125.5q66 0 99.5 -49.5t33.5 -120.5 q0 -119 -61 -269q-84 -201 -236 -342t-356 -196q-227 -588 -420 -822q66 -49 188 -163q78 -74 128 -115t126 -91t157 -72.5t173 -22.5q96 0 197 49l24 -54q-117 -53 -221 -53q-129 0 -253 52.5t-193.5 107.5t-176.5 156q-121 113 -186 163q-177 -194 -381 -194h-2 q-123 0 -191.5 47t-68.5 115zM350 113q0 -45 49.5 -75t153.5 -30q180 0 338 168q-141 94 -287 94q-111 0 -182.5 -50t-71.5 -107zM1417 1077q350 115 514 494q57 137 58 246q0 112 -75 112h-1q-80 0 -162 -114.5t-176 -329.5q-6 -16 -158 -408z" />
<glyph unicode="M" horiz-adv-x="2840" d="M283 299q0 98 32 195l54 -19q-29 -92 -29 -176q0 -150 102.5 -242t321.5 -92q152 0 304.5 60.5t295.5 175t266 243.5t260 301q92 121 210 288t203 290t185.5 256t177 218t155.5 139.5t142 54.5v-58q-78 0 -190 -106l35 -21q-41 -70 -87 -177t-79 -198.5t-84 -240 t-80 -225.5l336 268q172 135 252 203q242 432 383 536q28 23 51 23q16 0 28.5 -15.5t12.5 -31.5q0 -31 -20 -78q-76 -184 -410 -471q-168 -301 -346 -717q-213 -500 -213 -754q0 -295 291 -295v-57q-180 0 -264.5 96.5t-84.5 255.5q0 262 218 777q133 313 278 593l-139 -110 l-414 -330l-29 -70q-113 -264 -233 -307q-15 -6 -28 -6q-19 -1 -35 11q-28 20 -29 53q0 29 12 51q43 96 295 303q20 51 144 403.5t196 487.5q-123 -131 -410.5 -538.5t-384.5 -534.5q-139 -174 -265 -306.5t-275.5 -251t-309 -182t-321.5 -63.5q-242 0 -361.5 110.5 t-119.5 280.5zM2140 539q0 -8 14 -4q92 33 187 243q-166 -145 -195 -213q-6 -16 -6 -26zM3205 1561q209 194 264 331v2q8 14 13 29q-98 -72 -277 -362z" />
<glyph unicode="N" horiz-adv-x="2342" d="M276 274q0 111 39 220l54 -21q-35 -109 -35 -199q0 -143 83 -228t257 -85q176 0 383 113.5t398.5 299t360.5 398.5t298 430q-49 307 -50 440q0 111 25 177v2q68 155 188 155h2q55 0 87 -52t32 -132q0 -63 -16 -150q-55 -186 -209 -450l37 -244v-2q18 -178 18 -358 q0 -109 -8 -197q190 465 342 746q-84 -6 -172 -7v58q98 0 207 10q444 780 946 780q72 0 115 -40t43 -103q0 -66 -42 -145.5t-131 -166.5t-212 -164t-302.5 -135.5t-381.5 -80.5q-51 -92 -101.5 -192.5t-98.5 -209t-78 -178t-77 -184.5t-59 -143l-16 6q-23 -131 -68 -252 l-53 20q90 231 90 578q0 176 -19 352h2l-26 176q-137 -219 -307 -427t-362.5 -387t-399.5 -288.5t-385 -109.5q-197 0 -297.5 105.5t-100.5 264.5zM2122 1642q0 -117 37 -360q119 213 165 373q16 86 17 137q0 127 -62 127q-86 0 -137 -121v2q-20 -62 -20 -158zM2666 1204 q231 31 426 109t310.5 172t178 186t62.5 164q0 86 -100 86q-459 0 -877 -717z" />
<glyph unicode="O" horiz-adv-x="1972" d="M924 342q0 256 151 619q160 383 438 671q-35 -2 -112 -2v58q94 0 174 6q154 145 305.5 225t259.5 80q53 0 86 -23.5t33 -56.5q0 -51 -66.5 -106.5t-224.5 -106.5t-371 -68q-301 -295 -471 -698q-145 -348 -145 -598q0 -334 266 -334q207 0 472.5 265.5t434.5 670.5 q121 283 121 457q0 201 -168 201q-143 0 -310 -169t-269 -413q-72 -170 -72 -318q0 -184 141 -184v-57q-102 0 -150 68.5t-48 172.5q0 156 76 340q109 256 288.5 436.5t343.5 180.5q104 0 165 -66.5t61 -191.5q0 -178 -125 -479q-176 -420 -455.5 -695.5t-505.5 -275.5 q-162 0 -242.5 106.5t-80.5 284.5zM1669 1702q172 20 300 64t180.5 84t52.5 69q-1 23 -62 23q-90 0 -214 -62.5t-257 -177.5z" />
<glyph unicode="P" horiz-adv-x="1503" d="M322 254q0 256 139 588q63 154 158.5 312.5t220.5 312t258 273.5t284.5 193.5t290.5 73.5q197 0 293 -104.5t96 -276.5q0 -190 -106 -450q-82 -193 -243 -346.5t-343 -153.5q-25 0 -70 4q-399 -793 -714 -793q-129 0 -196.5 100.5t-67.5 266.5zM379 254q0 -147 52 -228 t155 -81q283 0 657 749q-88 27 -148.5 95.5t-84 144.5t-23.5 158q0 45 4 67l56 -8q-2 -18 -3 -59q0 -119 54.5 -216.5t169.5 -130.5q166 340 278 666l56 -20q-125 -350 -275 -656q14 -2 43 -2q160 0 308.5 142.5t224.5 322.5q102 240 102 428q0 324 -332 324 q-162 0 -341 -107.5t-332.5 -276.5t-279.5 -362.5t-206 -382.5q-135 -315 -135 -567z" />
<glyph unicode="Q" horiz-adv-x="1845" d="M707 80q0 78 104 142.5t258 64.5q168 0 344 -86q195 145 367 369.5t276 473.5q156 371 156 617q0 297 -242 297q-164 0 -348 -148q92 -125 92 -344q0 -254 -121 -548q-94 -225 -228 -376t-259 -151q-82 0 -127 65.5t-45 174.5q0 186 115 463q193 455 493 723 q-74 63 -180 63v57q135 0 223 -84q201 162 385 162q150 0 224.5 -97t74.5 -257q0 -256 -160 -637q-106 -252 -275 -477t-366 -377q115 -66 285 -205v-2q16 -14 73.5 -67.5t77 -71t72 -60.5t79 -60t75.5 -46t86 -40t85 -21.5t95 -10.5v-57q-47 0 -91 6t-88 23.5t-78 30 t-80 45t-69.5 48t-73.5 58.5t-65.5 57.5t-70 64.5t-64.5 60v-2q-174 143 -297 213q-254 -182 -477 -182q-104 0 -169.5 36t-65.5 93zM764 80q0 -31 46 -51.5t132 -20.5q190 0 420 154q-148 67 -289 67h-4q-133 0 -219 -48t-86 -101zM991 631q0 -182 115 -182q102 0 224 140 t210 349q117 278 117 528q0 199 -78 308q-289 -256 -477 -701q-111 -262 -111 -442z" />
<glyph unicode="R" horiz-adv-x="1589" d="M367 340q0 274 145 621q78 188 205 374.5t278.5 338t327.5 245.5t336 94q205 0 314.5 -107.5t109.5 -287.5q0 -168 -92 -391q-94 -227 -269.5 -399.5t-355.5 -178.5v-28q0 -68 -7 -241t-7 -267v-52q0 -33 2 -51q4 -139 26.5 -245.5t71.5 -199.5t139 -143.5t217 -50.5v-57 q-145 0 -247.5 56.5t-156.5 159.5t-79 217t-29 261v-2q-2 18 -2 55v52q0 98 7.5 271t7.5 237v30q-4 2 -9 2q-350 -704 -664 -704h-1q-129 0 -198.5 107.5t-69.5 283.5zM424 340q0 -158 54 -246t157 -88q279 0 608 662q-61 20 -97 61t-36 82t39 79t84 38q68 0 100 -70 q125 281 252 641l55 -20q-154 -424 -284 -707q4 -20 8 -65q162 4 323.5 165.5t249.5 374.5q88 207 88 371q0 162 -91 250t-275 88q-150 0 -316.5 -90t-312 -236.5t-268.5 -327t-199 -362.5q-139 -334 -139 -600zM1167 811q0 -27 27 -53.5t74 -40.5l30 63q-18 90 -65 90 q-25 0 -45.5 -19.5t-20.5 -39.5z" />
<glyph unicode="S" horiz-adv-x="1437" d="M268 289q0 88 45 200q72 172 234 310.5t360.5 220.5t425.5 121l-6 26v-2q-94 287 -94 418q0 96 31 168q51 119 182 200t252 81q76 0 132 -39t71 -113q124 43 276 43v-57q-152 0 -272 -43q0 -45 -13 -90q-18 -66 -39 -115q-43 -102 -100 -158.5t-104 -56.5 q-33 0 -56.5 27.5t-23.5 68.5q0 20 6 49q6 31 18 58q74 172 252 254q-14 114 -145 114h-2q-106 0 -222 -71.5t-159 -173.5q-27 -68 -27 -146q0 -135 92 -399v-2l9 -33q131 20 274 20v-57q-129 0 -260 -18q65 -250 65 -411q0 -159 -55 -290q-84 -197 -263 -319.5t-413 -122.5 q-221 0 -346 92t-125 246zM326 289q0 -129 105.5 -205t307.5 -76q217 0 382 112.5t241 295.5q51 127 51 262q0 150 -65 407q-338 -55 -609.5 -215.5t-371.5 -402.5q-41 -94 -41 -178zM1626 1499q0 -39 23 -39q29 0 71.5 46t79.5 134q27 64 35 105q8 39 10 51 q-139 -76 -198 -213q-14 -35 -15 -47q-6 -20 -6 -37z" />
<glyph unicode="T" horiz-adv-x="1257" d="M133 29q340 72 726 472t634 931l12 28l2 2l31 -14l21 -10l-11 -25q-489 -1163 -614 -1425l-53 24q147 309 415 949q-256 -389 -567 -659.5t-584 -330.5zM809 1366q0 72 41 172q72 168 220.5 297t356.5 135q37 98 54 146l55 -21q-20 -57 -47 -125q135 -6 287.5 -59 t262 -111.5t232.5 -106.5t211 -48h3q117 0 206 79l37 -41q-109 -96 -246 -96q-98 0 -228 49.5t-241.5 109.5t-263.5 111.5t-283 55.5q-76 -182 -158.5 -324.5t-190 -245t-208.5 -102.5q-45 0 -72.5 36t-27.5 89zM866 1366q0 -68 43 -68q121 0 251 174.5t243 438.5 q-180 -14 -309 -129t-191 -264q-37 -86 -37 -152z" />
<glyph unicode="U" horiz-adv-x="1722" d="M678 1210q0 133 74 316q84 197 244.5 329t320.5 132q98 0 148.5 -64.5t50.5 -173.5q0 -229 -193 -684l-96 -225q20 -2 63 -2v-58q-59 0 -88 2q-29 -66 -68.5 -155.5t-67.5 -153t-44 -104.5q-80 -193 -80 -287q0 -78 55 -78q88 0 259 190.5t358 473.5q72 334 189.5 591 t195.5 257q29 0 45 -23t16 -51q0 -90 -111.5 -314.5t-277.5 -476.5q-65 -301 -65 -528q0 -479 260 -576l-21 -53q-154 57 -225.5 225t-71.5 404q0 180 37 401q-176 -252 -335.5 -414.5t-252.5 -162.5q-49 0 -80.5 36.5t-31.5 98.5q0 104 84 307l174 399q-221 29 -343 136.5 t-122 285.5zM735 1210q0 -160 110.5 -253t321.5 -113l103 241q188 444 188 664q0 180 -141 180q-143 0 -288.5 -120.5t-223.5 -303.5q-70 -166 -70 -295zM1714 827q289 469 289 615q0 16 -4 16q-43 0 -128 -187.5t-157 -443.5z" />
<glyph unicode="V" horiz-adv-x="1601" d="M690 1282q0 102 49 223q96 229 258 365.5t338 136.5q109 0 170.5 -68.5t61.5 -189.5q0 -178 -127 -481l-146 -340h39v-58l-63 2l-74 -170q-184 -440 -184 -608q0 -86 51 -86q72 0 207 161t279.5 413t244.5 505q-100 63 -100 193q0 111 72.5 215t158.5 104 q39 0 62.5 -28.5t23.5 -69.5q0 -123 -139 -387q41 -12 94 -12q147 0 250.5 89t132.5 187l55 -14q-31 -113 -150.5 -216.5t-287.5 -103.5q-72 0 -121 19q-164 -412 -405.5 -762t-376.5 -350q-53 0 -81 41t-28 102q0 182 191 629l63 154q-256 23 -387 132t-131 273zM748 1282 q0 -147 119.5 -240.5t365.5 -109.5l156 356q120 289 120 458q0 204 -174 204q-160 0 -306 -125t-236 -342q-45 -103 -45 -201zM1751 1280q0 -98 68 -143q135 264 135 364q0 41 -29 41q-59 0 -116.5 -85t-57.5 -177z" />
<glyph unicode="W" horiz-adv-x="2256" d="M698 1317q0 84 39 182q92 225 270.5 366.5t372.5 141.5q129 0 203 -73.5t74 -211.5q0 -180 -121 -454l-139 -338h53v-58l-76 2l-82 -196q-172 -410 -172 -574q0 -96 64 -96q82 0 204.5 117t253.5 301q51 213 156 487q88 246 180 246q23 0 38.5 -20.5t15.5 -44.5 q0 -59 -52 -187q-94 -233 -286 -506q-37 -168 -37 -260q0 -133 65 -133q121 0 371 331t428 736q-133 8 -201.5 72.5t-68.5 152.5q0 39 12 74q31 84 98.5 148.5t135.5 64.5q74 0 116.5 -57t42.5 -156q0 -86 -22 -178l-25 -61q121 20 225.5 113t139.5 169l53 -22 q-43 -94 -169 -202t-273 -118q-186 -428 -451.5 -776t-411.5 -348q-61 0 -92 52t-31 138q0 51 15 152q-266 -342 -430 -342q-59 0 -90 43t-31 110q0 172 176 596l74 179q-293 23 -454 141.5t-161 296.5zM756 1317q0 -158 148.5 -261.5t430.5 -121.5l150 356q114 262 114 429 q0 230 -219 231q-178 0 -339.5 -130t-249.5 -341q-35 -82 -35 -162zM1741 575q127 209 186 353q47 117 47 166v8q-53 -10 -123 -209q-59 -150 -110 -318zM2308 1300q0 -72 57.5 -119.5t180.5 -50.5l32 82q20 90 21 162q0 156 -102 156q-47 0 -100.5 -52.5t-80.5 -119.5 q-8 -42 -8 -58z" />
<glyph unicode="X" horiz-adv-x="2082" d="M614 -29v58q70 0 154 59t182.5 177t180 235.5t196.5 294.5l21 65q12 39 47 148.5t49 157.5t39.5 139.5t37 145.5t21.5 121.5t10 119.5q0 123 -53 186.5t-178 63.5q-152 0 -299.5 -132.5t-206.5 -271.5q-43 -100 -43 -201q0 -154 111.5 -250t341.5 -96v-57 q-252 0 -381 115.5t-129 287.5q0 102 47 224q66 154 226.5 296t332.5 142q289 0 289 -307q0 -88 -28 -220.5t-54.5 -223.5t-81.5 -269q123 199 206 320.5t190.5 259t201.5 204t176 66.5v-57q-39 0 -82 -18.5t-93 -65t-91 -87t-103.5 -124.5t-100.5 -135.5t-108.5 -163 t-103.5 -162.5t-111 -174l-47 -74q-92 -301 -92 -469q0 -229 180 -276q53 203 191.5 376.5t275.5 173.5q70 0 109 -43t39 -104q0 -68 -37 -156q-53 -125 -182 -222t-275 -97q-29 0 -78 4q-6 -44 -6 -85v-20l-57 -4q-1 15 -1 30q0 45 9 91q-225 59 -225 332q0 127 47 315 q-203 -305 -364.5 -474t-299.5 -169zM1524 12q41 -4 65 -4q127 0 243 87t161 198q32 66 32 129q0 94 -90 94q-117 0 -240.5 -159.5t-170.5 -344.5z" />
<glyph unicode="Y" horiz-adv-x="1724" d="M676 -985q0 133 67 299q154 365 590 506l285 749q-348 -618 -571 -618q-61 0 -94 42t-33 111q0 150 122 439l35 82q-186 53 -286.5 205.5t-100.5 357.5q0 199 90 414q63 154 189.5 275.5t279.5 121.5q129 0 196.5 -85t67.5 -228q0 -205 -133 -531q-6 -16 -223 -491 q49 -8 113 -9v-57q-74 0 -135 12l-39 -88q-119 -279 -119 -418q0 -96 70 -96q59 0 129.5 52.5t148.5 159t149.5 218t161.5 283.5t153.5 299t156.5 315q20 43 32.5 67.5t29.5 60.5t32 65l51 -25q-141 -287 -283.5 -623.5t-212 -522t-192.5 -517.5q149 40 323 54l5 -58 q-199 -16 -353 -61q-137 -362 -161 -418q-115 -266 -210.5 -399.5t-199.5 -133.5q-63 0 -97 54.5t-34 136.5zM733 -985q0 -133 74 -133q80 0 165 122.5t191 374.5q74 176 146 373q-377 -137 -512 -459q-63 -150 -64 -278zM748 1188q0 -193 90 -329t262 -183q29 61 109.5 236 t117.5 264q129 309 129 510q0 256 -207 256q-133 0 -245.5 -111t-169.5 -250q-86 -198 -86 -393z" />
<glyph unicode="Z" horiz-adv-x="1554" d="M381 -1126q0 74 45 182q76 184 252 379.5t405 314.5q12 74 13 139q0 82 -21 138q-129 -74 -237 -74q-51 0 -85 24.5t-34 63.5q0 57 58.5 108.5t133.5 51.5q121 0 187 -95q182 123 362 369t299 526q131 313 131 570q0 172 -67.5 270t-210.5 98q-188 0 -381 -201.5 t-322 -506.5q-86 -203 -86 -348q0 -209 183 -209q127 0 285.5 133t207.5 252l53 -23q-55 -133 -228 -276.5t-318 -143.5q-115 0 -177.5 73t-62.5 194q0 150 90 370q135 319 341 531.5t415 212.5q170 0 253 -119t83 -307q-1 -260 -136 -592q-123 -289 -309 -541t-379 -381 q29 -76 29 -168q0 -59 -8 -108q219 98 450 98v-57q-233 0 -460 -111q-31 -166 -109 -348q-106 -254 -255.5 -434t-283.5 -180q-49 0 -77.5 35.5t-28.5 89.5zM438 -1126q0 -68 49 -68q111 0 247.5 169t238.5 409q66 154 96 292q-205 -115 -362.5 -294t-229.5 -347 q-39 -96 -39 -161zM776 41q1 -31 62 -31q96 0 213 68q-46 65 -137 65h-3q-55 0 -95 -33.5t-40 -68.5z" />
<glyph unicode="[" horiz-adv-x="440" d="M-68 -209q-2 4 158 367.5t345.5 784.5t221.5 507q117 39 191 80l29 -49q-84 -49 -177 -76l-696 -1585q23 -16 55.5 -54t36.5 -42l-39 -41q-14 14 -40.5 44.5t-46 46t-38.5 17.5z" />
<glyph unicode="\" horiz-adv-x="503" d="M162 -362l504 1972l57 -13l-506 -1972z" />
<glyph unicode="]" horiz-adv-x="417" d="M-55 -272q160 90 190 102l670 1583q-63 35 -103 70l37 43q59 -49 113 -72l-10 -27l24 -10l-684 -1620l-28 10l10 -26q-25 -8 -56.5 -25.5t-72.5 -41t-64 -36.5z" />
<glyph unicode="^" horiz-adv-x="602" d="M410 940l346 311l20 -20l29 4l35 -311l-58 -9l-28 259l-305 -275z" />
<glyph unicode="_" horiz-adv-x="550" d="M-123 -104h551v-58h-551v58z" />
<glyph unicode="`" horiz-adv-x="253" d="M401 1139l39 41l181 -179l-41 -40z" />
<glyph unicode="a" d="M-2 90q0 68 41 160q74 176 221.5 311t294.5 135q78 0 139 -30l-26 -50q-43 23 -113 23q-129 0 -262 -124t-203 -288q-35 -82 -35 -137q0 -72 66 -72q88 0 230.5 143.5t299.5 413.5l6 11l2 2l29 -17l21 -12l-9 -14q-131 -260 -165 -344q-35 -78 -35 -129q0 -39 37 -39 q57 0 184 97.5t303 285.5l43 -41q-379 -399 -530 -400q-45 0 -70 28t-25 69q0 61 39 151q-215 -262 -360 -262q-57 0 -90 37t-33 92z" />
<glyph unicode="b" horiz-adv-x="647" d="M53 90q0 190 266 832q141 338 245 529t171 191q35 0 53.5 -31.5t18.5 -74.5q0 -125 -86 -338q-92 -215 -242.5 -446.5t-304.5 -372.5q-63 -197 -63 -289q0 -59 26 -59q76 0 198 185t200 366l10 22l53 -20l-14 -33q-66 -162 -66 -246q0 -53 31 -53q82 0 229 162l43 -37 q-166 -182 -272 -182q-37 0 -62.5 30.5t-25.5 79.5v4q-199 -336 -324 -336q-41 0 -62.5 34t-21.5 83zM215 502q131 143 253 338.5t200 378.5q82 203 82 317q0 49 -15 49q-35 0 -139 -201.5t-223 -482.5q-100 -240 -158 -399z" />
<glyph unicode="c" horiz-adv-x="616" d="M53 158q0 84 41 184q63 152 167 265.5t196 113.5q72 0 94 -74q14 23 35 37l32 -49q-47 -31 -73 -125l-4 -12l-56 12q14 72 15 90q0 63 -43 64q-72 0 -161 -102.5t-149 -242.5q-36 -80 -36 -157q0 -131 112 -131q96 0 237.5 106.5t284.5 276.5l43 -37q-150 -176 -302 -290 t-263 -114q-80 0 -125 52.5t-45 132.5z" />
<glyph unicode="d" horiz-adv-x="960" d="M6 98q0 72 39 162q76 178 227.5 309t311.5 131q23 0 71 -8q61 170 203 506q164 395 250 395q20 0 32.5 -17t12.5 -38q0 -66 -76 -242q-209 -500 -454 -872q-66 -207 -66 -318q0 -83 43 -83q57 0 204.5 119.5t285.5 271.5l43 -37q-147 -164 -303 -288t-230 -124 q-47 0 -73.5 41t-26.5 100.5t24 178.5q-236 -315 -407 -316q-53 0 -82 38t-29 91zM63 98q1 -71 54 -71q178 0 452 417q27 88 66 193q-27 6 -51 6q-141 0 -278.5 -120t-207.5 -285q-35 -72 -35 -140zM707 672q184 326 317 645q66 154 70 209q-70 -74 -185 -348 q-150 -362 -202 -506z" />
<glyph unicode="e" horiz-adv-x="520" d="M49 113q0 115 76 293q49 117 119.5 203.5t122.5 86.5q35 0 53 -24.5t18 -53.5q0 -33 -14 -67q-70 -172 -252 -184q-66 -158 -66 -254q0 -84 56 -84q57 0 196 109.5t291 275.5l43 -37q-160 -176 -308 -291t-222 -115q-53 0 -83 40t-30 102zM199 428q125 23 172 145 q10 18 10 45q0 21 -14 21q-27 0 -76 -61.5t-92 -149.5z" />
<glyph unicode="f" horiz-adv-x="520" d="M-371 -954q0 33 8.5 78t27 108t36.5 119.5t52 146.5t57.5 151.5t68.5 171t69.5 167t76 179.5t71.5 173q115 270 205 469t190.5 393.5t182.5 297t139 102.5q35 0 56.5 -25t21.5 -64q0 -68 -60 -210q-84 -199 -261 -446t-396 -480l-24 -58l-109 -258q20 -4 35 -4 q256 0 573 357l43 -37q-332 -377 -616 -377h-6q12 -57 12 -152q0 -303 -115 -571q-53 -123 -129 -226.5t-137 -103.5q-33 0 -52.5 29t-19.5 70zM-299 -995q37 0 102.5 93.5t112.5 199.5q109 268 109 550q0 90 -13 144q-325 -776 -325 -945q0 -42 14 -42zM244 537 q397 453 534 786q55 133 56 190q-1 31 -21 31q-66 0 -221.5 -283.5t-347.5 -723.5z" />
<glyph unicode="g" horiz-adv-x="847" d="M-260 -1006q0 61 33 144q68 160 188.5 295t343.5 334l219 538q-248 -336 -415 -336q-45 0 -75 36t-30 91q0 66 41 164q70 168 221.5 307.5t311.5 139.5q63 0 122 -27l-22 -53q-43 22 -95 22h-5q-139 0 -277.5 -128t-204.5 -281q-35 -84 -35 -144q0 -69 47 -69h1 q92 0 236 150.5t314 434.5l52 -28q-25 -45 -67 -144.5t-118.5 -290t-117.5 -292.5q354 317 569 557l43 -37q-45 -49 -93 -100.5t-85 -90.5t-90.5 -90t-81 -77.5t-86 -80t-74.5 -67.5t-79.5 -71.5t-72.5 -63.5q-164 -391 -297 -628.5t-225 -237.5q-45 0 -70.5 36.5 t-25.5 87.5zM-203 -1006q0 -67 39 -67q109 0 416 715q-170 -156 -269.5 -274t-156.5 -251q-29 -66 -29 -123z" />
<glyph unicode="h" horiz-adv-x="888" d="M-27 29q29 70 94.5 236.5t115.5 291.5t122 296t130.5 295t119.5 237.5t111.5 174t87.5 60.5t58.5 -29.5t21.5 -70.5q0 -88 -64 -236q-174 -416 -594 -905l-86 -211q203 229 345.5 364.5t219.5 135.5q35 0 57.5 -21.5t22.5 -52.5q0 -37 -24 -92q-27 -66 -85.5 -185.5 t-78.5 -166.5q-27 -68 -27 -99q0 -23 19 -22q55 0 197.5 113.5t281.5 271.5l43 -37q-147 -168 -299 -287t-223 -119q-33 0 -54.5 24.5t-21.5 55.5q0 43 31 119q20 49 78.5 169t84.5 183q20 47 21 72q0 16 -23 16q-37 0 -100 -48t-162.5 -150.5t-162 -173t-181.5 -205.5 q-18 -23 -29 -33l-22 18zM246 555q322 399 473 752q57 137 57 213q1 43 -22 43q-96 0 -508 -1008z" />
<glyph unicode="i" horiz-adv-x="501" d="M55 68q0 68 47 176q23 55 64 137l-37 33q121 137 193 252l49 -29q-147 -254 -215 -416q-43 -94 -43 -153q0 -39 30 -39q57 0 194.5 110.5t293.5 276.5l43 -41q-166 -176 -311.5 -290t-219.5 -114q-41 0 -64.5 28t-23.5 69zM461 981q2 4 32.5 72.5t34.5 74.5l47 -32 q-4 -4 -32.5 -71t-32.5 -73z" />
<glyph unicode="j" horiz-adv-x="432" d="M-678 -997q0 92 55 225q57 139 204 290.5t384 354.5l207 506l-43 35q100 127 154 229l4 12l2 2l30 -14l21 -10l-4 -10l-273 -666q365 307 500 457l41 -37q-39 -43 -87 -91t-87 -85t-103.5 -94.5t-98 -86t-109.5 -93t-103 -87.5q-193 -471 -335 -723t-256 -252 q-45 0 -74 39t-29 99zM-621 -997q1 -80 46 -80q82 0 202.5 216t288.5 615q-193 -166 -314.5 -298t-170.5 -251q-51 -115 -52 -202zM406 897q4 6 33.5 72.5t33.5 72.5l47 -32q0 -2 -15.5 -37t-31.5 -69t-20 -40z" />
<glyph unicode="k" horiz-adv-x="845" d="M-31 18q23 53 95.5 236.5t124 310.5t132 318.5t142 323.5t129 261t120 196t87.5 67q33 0 49 -28t16 -69q0 -123 -100 -368q-92 -217 -253 -463t-335 -424l-90 -221q127 152 209 239.5t189.5 167.5t183.5 80q53 0 82.5 -28.5t29.5 -69.5q0 -35 -16 -74 q-29 -68 -101.5 -128t-154.5 -60q-57 0 -107 16q-6 -55 -6 -102q0 -170 56 -170q80 0 228 108.5t298 276.5l43 -37q-156 -174 -316.5 -290t-252.5 -116q-57 0 -85 65.5t-28 162.5q0 74 12 147l29 -4l18 20q23 -20 111 -20q61 0 120.5 50t84.5 106q10 20 10 49q0 41 -55 41 q-33 0 -73 -17.5t-88 -56.5t-89 -77t-100.5 -103.5t-98.5 -109.5t-104.5 -120.5t-98.5 -113.5l-20 18zM240 537q143 170 270 371.5t201 377.5q96 236 96 348q0 39 -8 39q-88 0 -559 -1136z" />
<glyph unicode="l" horiz-adv-x="477" d="M49 80q0 178 275 833q279 707 436 707q35 0 53 -27.5t18 -68.5q0 -101 -81 -289q-86 -201 -242 -439.5t-332 -416.5q-70 -205 -70 -299q0 -51 21 -51q55 0 196.5 112.5t284.5 272.5l43 -37q-152 -170 -303 -288t-221 -118q-37 0 -57.5 31t-20.5 78zM227 518 q147 170 274.5 369.5t196.5 367.5q76 184 76 271q0 37 -14 37q-29 0 -79 -62.5t-132 -221.5t-172 -386q-78 -184 -150 -375z" />
<glyph unicode="m" horiz-adv-x="1576" d="M131 414q74 82 99.5 109.5t81 80.5t92 71.5t69.5 18.5q41 0 62.5 -25.5t21.5 -62.5q0 -57 -43 -157l-65 -148q274 352 411 352q37 0 61.5 -25.5t24.5 -64.5q0 -51 -39 -149l-35 -82q268 360 402 360q37 0 59.5 -24.5t22.5 -63.5q0 -84 -92 -301q-82 -199 -82 -254 q0 -23 20 -22q51 0 200.5 108.5t303.5 278.5l43 -37q-164 -180 -322.5 -294t-224.5 -114q-35 0 -56.5 22.5t-21.5 57.5q0 66 86 277q88 205 88 278q0 31 -24 31q-61 0 -181 -128t-217.5 -264.5t-175.5 -262.5l-20 12l-31 14q111 209 205 430q35 84 35 127q0 33 -29 33 q-150 0 -561 -604l-2 -4l-2 -2l-23 16l-26 14q102 182 215 455q39 88 39 135q0 31 -27 31q-23 0 -49.5 -14.5t-70.5 -56.5t-67.5 -66.5t-88.5 -96.5q-16 -18 -25 -26z" />
<glyph unicode="n" horiz-adv-x="1130" d="M131 414q180 195 242 241q63 49 108 51q35 0 57.5 -24.5t22.5 -58.5q0 -57 -59 -195q-14 -37 -64 -143q303 395 416 395q33 0 53.5 -23.5t20.5 -54.5q0 -70 -80 -254q-100 -244 -100 -297q0 -18 16 -18q53 0 201 107.5t295 273.5l43 -37q-154 -176 -311.5 -289 t-227.5 -113q-31 0 -52.5 22.5t-21.5 53.5q0 66 107 320q73 172 73 229q0 22 -16 23q-49 0 -168 -130.5t-210 -252t-181 -250.5l-2 -4l-2 -2l-23 16l-26 14q29 49 106.5 215t100.5 222q55 123 55 172q0 25 -22.5 24.5t-50.5 -17t-76 -62.5t-78.5 -78.5t-104.5 -112.5z" />
<glyph unicode="o" horiz-adv-x="655" d="M43 131q0 84 47 201q61 145 168 261t203 116v-58q-76 0 -169 -104.5t-149 -235.5q-43 -100 -43 -180q0 -102 66 -102q90 0 213 151q-35 45 -35 117q0 96 59 244q31 76 80 131t86 55q33 0 50.5 -29.5t17.5 -70.5q0 -96 -59 -234q-39 -92 -113 -196h2q118 0 319 217l41 -37 q-213 -238 -360 -238q-25 0 -43 8q-143 -176 -258 -176q-55 0 -89 45t-34 115zM401 297q0 -49 15 -72q72 98 110 191q53 121 54 211q0 43 -11 43q-16 0 -51 -45t-61 -107q-56 -129 -56 -221z" />
<glyph unicode="p" horiz-adv-x="909" d="M-256 -616q0 55 47 165q76 178 218.5 420t289.5 422l125 297q-135 -190 -252 -313l-41 41q113 121 244 305t211 360l4 6l51 -24q-10 -25 -219 -537q152 147 254 148q57 0 88 -40t31 -95q0 -68 -33 -146q-43 -100 -121 -188t-162 -135q283 27 559 344l45 -37 q-174 -197 -344 -282t-311 -85q-135 0 -199 58q-322 -745 -436 -746q-23 0 -36 19.5t-13 42.5zM-199 -616v-2q84 39 408 794q-240 -344 -365 -647q-43 -102 -43 -145zM236 82l30 31q25 -25 82 -25q86 0 196.5 98.5t164.5 229.5q28 57 28 119q0 81 -61 81q-119 0 -316 -237z " />
<glyph unicode="q" horiz-adv-x="878" d="M2 90q0 70 41 168q74 178 223.5 311t306.5 133q53 0 121 -26l-20 -53q-49 22 -97 22h-4q-137 0 -273 -122t-204 -285q-37 -84 -37 -147.5t50 -63.5q80 0 234.5 150.5t315.5 418.5l52 -29q-258 -457 -455 -925q-186 -453 -186 -609q0 -16 2 -28v-2q63 0 155 188t162 440 t76 424h29l10 27q16 -4 28 -4q74 0 202.5 85t273.5 251l43 -37q-156 -176 -293 -266.5t-226 -90.5h-12q-14 -197 -84.5 -447.5t-173 -439t-190.5 -188.5q-27 0 -43.5 27t-16.5 61q0 166 191 629q109 256 262 563q-106 -125 -200.5 -190.5t-155.5 -65.5q-51 0 -79 35t-28 86z " />
<glyph unicode="r" horiz-adv-x="673" d="M131 414q88 100 154 192q-18 27 -19 49q0 20 6 35l2 2q8 25 31 43.5t43 18.5q25 0 37 -22.5t6 -51.5q0 -8 -6 -18q-2 -8 -20 -39l24 -13l2 -2q4 -2 18.5 -7t21.5 -10t18.5 -13.5t16.5 -20.5t5 -29q0 -29 -22 -84q-14 -35 -67.5 -142t-74.5 -155q-22 -53 -22 -82 q0 -33 30 -32q66 0 208.5 116.5t279.5 266.5l43 -41q-145 -158 -296 -279t-235 -121q-41 0 -64.5 27t-23.5 61q0 39 27 105q23 53 76 161.5t65 137.5q18 43 19 61q0 4 -49 31l2 -2l-35 16q-41 -61 -160 -196z" />
<glyph unicode="s" horiz-adv-x="577" d="M-43 162v2h29l28 2q4 -49 38 -76t79 -27q43 0 82 23t53 55q18 47 19 115q0 23 -3 70t-3 73q0 57 8 109q-23 -29 -115 -131l-43 37q168 190 229 282l19 -12l31 -18q-72 -117 -72 -267q0 -25 3 -71.5t3 -71.5q0 -80 -23 -137q-20 -47 -71 -78q174 49 461 373l43 -37 q-180 -207 -319.5 -306.5t-266.5 -99.5q-98 0 -151.5 53.5t-57.5 137.5z" />
<glyph unicode="t" horiz-adv-x="550" d="M102 59q0 86 121 375l-51 -57l-41 37q113 129 188 248l138 323l-64 -2l-2 57l92 4l166 392l53 -21l-157 -368l205 10l2 -58l-232 -10l-149 -352v-2l-74 -172q-137 -326 -137 -404q0 -18 6 -24t22 -6q125 2 494 387l41 -41q-385 -401 -535 -404q-37 0 -61.5 23.5 t-24.5 64.5z" />
<glyph unicode="u" d="M82 70q0 72 68 235q12 29 40 90l-16 -18l-45 37q143 166 209 278l24 -14l25 -14l-10 -19q-135 -262 -174 -362q-63 -150 -64 -213q0 -41 35 -41q45 0 111.5 60.5t149.5 173t144.5 206.5t143.5 225l49 -28q-141 -256 -225 -451q-43 -98 -43 -149q0 -33 28 -33 q138 0 492 383l41 -41q-373 -399 -533 -400q-41 0 -63.5 26t-22.5 65q0 59 48 172l8 18q-211 -285 -328 -285q-43 0 -67.5 28t-24.5 71z" />
<glyph unicode="v" horiz-adv-x="872" d="M131 414q264 293 363 293q33 0 52 -25t19 -59q0 -70 -82 -283q-90 -229 -90 -287q0 -25 15 -24q59 0 181 215t216 442l22 -8l33 -10q-59 -174 -59 -273q0 -80 43 -80q68 1 160 99l40 -37q-106 -119 -200 -119q-51 0 -76 39t-25 98v17q-217 -440 -335 -441 q-33 0 -52.5 24.5t-19.5 57.5q0 68 94 307q78 203 78 263q0 27 -14 26q-72 0 -322 -272z" />
<glyph unicode="w" horiz-adv-x="1093" d="M111 80q0 98 79 289l23 53q-6 -8 -20.5 -22.5t-20.5 -22.5l-43 37q150 166 209 264l51 -29q-94 -176 -145 -301q-76 -180 -76 -268q0 -51 31 -51q76 0 246.5 223t277.5 440l51 -24q-25 -53 -108 -242q-104 -250 -105 -344q0 -37 17 -37q72 0 199.5 216t234.5 468l53 -20 q-94 -260 -94 -351q0 -67 50 -67h1q94 0 203 123l43 -37q-129 -143 -246 -144q-53 0 -81 36t-28 89l2 29q-213 -399 -337 -399q-35 0 -54.5 27.5t-19.5 66.5q0 78 55 229q-242 -340 -360 -340q-41 0 -64.5 31t-23.5 78z" />
<glyph unicode="x" horiz-adv-x="804" d="M131 414q168 186 241.5 244.5t119.5 58.5q31 0 49 -24.5t18 -57.5q0 -45 -22 -123l122 182l48 -32l-238 -353q-68 -180 -68 -246q0 -35 21 -34q72 0 209 98.5t305 286.5l41 -37q-174 -199 -321.5 -302.5t-233.5 -103.5q-39 0 -58.5 28t-19.5 64q0 31 10 78l-104 -155 l-47 32l217 320l6 18q76 219 76 279q0 25 -10 24q-20 0 -45 -15t-94.5 -80.5t-180.5 -186.5z" />
<glyph unicode="y" horiz-adv-x="1097" d="M43 -963q0 66 41 164q57 137 164.5 264t283.5 287l242 588q-260 -369 -399 -369q-35 0 -56.5 24.5t-21.5 59.5q0 59 43 150v-2q27 66 84 180.5t74 153.5q26 57 26 93q0 19 -12 19q-88 0 -340 -272l-41 37q270 293 381 293q31 0 50.5 -22.5t19.5 -51.5q0 -47 -31 -119 q-20 -51 -77.5 -163.5t-82.5 -168.5v-2q-37 -76 -37 -125q0 -27 21 -26q70 0 213 160.5t332 484.5l4 8l2 2l28 -16l21 -13l-6 -8q-41 -86 -93.5 -212t-125 -307t-115.5 -284q16 14 90 80t101.5 91.5t93 86t106.5 101.5t97.5 98.5t105.5 112.5l41 -37q-86 -96 -190.5 -198.5 t-163 -157t-184.5 -167t-148 -133.5q-152 -358 -268.5 -566t-198.5 -208q-35 0 -54.5 27t-19.5 63zM100 -963q1 -32 17 -32q92 0 360 616q-260 -250 -340 -440q-37 -88 -37 -144z" />
<glyph unicode="z" horiz-adv-x="839" d="M-66 -950q0 76 56 215q63 154 189 309.5t323 355.5q-4 104 -74 105q-72 0 -182 -96l-37 45l2 2q106 88 206.5 209.5t153.5 244.5q35 82 35 140q0 63 -65 63q-127 0 -369 -266l-41 37q253 286 409 286h1q57 0 90 -33.5t33 -86.5q0 -63 -39 -160q-63 -154 -222 -330 q8 2 25 2q100 0 125 -108q340 346 416 430l43 -37q-104 -115 -453 -469q-6 -160 -110 -402q-86 -211 -219.5 -385t-213.5 -174q-39 0 -60.5 30t-21.5 73zM-8 -950q0 -45 24 -45q57 0 178 164.5t203 357.5q74 174 97 315q-354 -369 -451 -598q-51 -129 -51 -194z" />
<glyph unicode="{" horiz-adv-x="532" d="M57 -229q0 92 142 354q139 262 139 344q0 49 -49 51l2 25l-8 33q59 16 107 60t86 121t61.5 139.5t54.5 166.5q76 256 123 336q66 100 151 102v-57q-37 0 -67.5 -27.5t-60 -96.5t-45 -117t-48.5 -156q-27 -90 -48.5 -151.5t-55 -136.5t-78.5 -128t-98 -84q31 -31 30 -80 q0 -84 -145 -371q-135 -248 -135 -327q0 -49 59 -50v-57q-55 0 -86 30t-31 77z" />
<glyph unicode="|" horiz-adv-x="501" d="M-166 -764l924 2204l53 -21l-924 -2203z" />
<glyph unicode="}" horiz-adv-x="532" d="M-31 -279q121 0 201 179q27 59 82 225q29 92 46 142t49 121t71 113t88 62q-27 33 -27 84q0 109 158 400q8 14 27.5 51t26.5 51l23.5 47t25 48.5t20.5 41t17 41.5t12.5 34.5t9.5 32t2 25.5q0 27 -29 27v57q39 0 62.5 -24.5t23.5 -59.5q0 -14 -3 -30.5t-9 -37t-13.5 -39 t-19.5 -45t-21.5 -46t-25.5 -50t-25.5 -49t-28 -53.5t-26.5 -51q-150 -274 -149 -371q0 -53 45 -72l-11 -28l2 -27q-41 -2 -76.5 -28.5t-59 -58.5t-51.5 -96.5t-41 -105.5t-40 -125q-29 -88 -43 -130t-47 -113.5t-62.5 -106.5t-77.5 -63.5t-106 -28.5v57z" />
<glyph unicode="~" horiz-adv-x="628" d="M156 332q37 25 84 33q10 2 26 2q45 0 120 -26t108 -26q41 0 75 27l35 -43q-49 -41 -110 -41q-43 0 -119 25.5t-109 25.5h-12l-6 -2q-29 -2 -58 -22z" />
<glyph unicode="&#xa1;" horiz-adv-x="311" d="M-178 -543l381 905l53 -22l-381 -905zM260 582q0 33 37 67.5t86 34.5v-22q39 -14 39 -48q0 -29 -32 -59.5t-68 -30.5q-25 0 -43.5 18.5t-18.5 39.5zM317 582h5q25 0 40 26v15q-20 -6 -32.5 -18.5t-12.5 -22.5z" />
<glyph unicode="&#xa2;" horiz-adv-x="589" d="M80 109q0 45 26 114q45 106 131.5 178t168.5 82l34 84l52 -22l-27 -64q98 -25 98 -110q0 -34 -10 -54l-53 21q6 18 6 33q0 49 -64 57l-170 -408q53 12 105.5 54.5t75.5 91.5l51 -27q-33 -68 -109 -122t-149 -58l-39 -94l-53 22l32 78q-106 35 -106 144zM137 109 q0 -76 72 -91l170 402q-61 -18 -122.5 -76.5t-96.5 -142.5q-23 -51 -23 -92z" />
<glyph unicode="&#xa3;" horiz-adv-x="630" d="M31 23q0 16 14 40l-2 -2q14 27 50 48.5t73 21.5q29 0 57 -14q14 23 23 43q16 45 20 94q2 10 2 29l-67 2v57l65 -2q0 4 -3 43t-3 57q0 61 19 109q31 70 102.5 114t155.5 44q72 0 112.5 -31t40.5 -80q0 -18 -12 -59l-53 22q8 18 8 37q0 53 -96 53q-68 0 -125.5 -33.5 t-79.5 -87.5q-14 -41 -15 -88q0 -14 1 -30.5t3.5 -37t2.5 -32.5q61 0 135 18l14 -55q-80 -20 -147 -20q0 -25 -2 -37q-2 -39 -25 -107q-12 -29 -31 -57l13 -10q39 -43 75 -43q10 0 19.5 1t18.5 5t14.5 6t15.5 10t12 10t15 13l10 10l41 -41q-2 -2 -10.5 -9t-11.5 -10.5 t-12 -10.5t-14 -11t-14.5 -10t-17.5 -8t-19.5 -6.5t-22.5 -5.5t-24 -1q-57 0 -116 60l-7 6q-66 -66 -131 -66q-31 0 -51 15.5t-20 36.5zM92 31q2 -2 10 -2q41 0 84 41q-12 4 -20 4q-51 0 -72 -41z" />
<glyph unicode="&#xa4;" horiz-adv-x="610" d="M6 -57q68 61 96 80q-25 39 -24 81q0 47 28 117q51 131 170 209q-2 47 -20 66l41 41q27 -27 35 -76q51 20 92 20q47 0 84 -26q57 39 92 80l45 -37q-35 -39 -96 -84q27 -41 26 -90q0 -74 -49 -158l-26 14q-35 -94 -129 -164q16 -35 51 -61l-35 -45q-45 35 -65 76 q-45 -23 -95 -23q-47 0 -80 21q-41 -27 -102 -82zM135 104q0 -84 92 -84q80 0 154 78t74 142q0 10 -2 14l53 20l4 -8q8 27 8 58q0 45 -26.5 72.5t-67.5 27.5q-68 0 -145.5 -62.5t-120.5 -162.5q-23 -53 -23 -95z" />
<glyph unicode="&#xa5;" horiz-adv-x="655" d="M145 195v57l174 2l31 68q-111 0 -160 2l3 57q47 -2 157 -2h10l-61 289l55 12l60 -274l315 286l39 -43l-297 -268q97 4 156 14l12 -55q-80 -14 -225 -18l-31 -68l174 2v-57l-201 -2l-98 -213l-51 24l86 189z" />
<glyph unicode="&#xa6;" horiz-adv-x="501" d="M-158 -743l389 927l54 -20l-389 -928zM369 512l389 928l53 -21l-389 -927z" />
<glyph unicode="&#xa7;" horiz-adv-x="843" d="M199 68q0 82 55 213l53 -21q-51 -121 -51 -192q0 -82 82 -82q90 0 167 67.5t118 161.5l8 23q-82 -29 -187 -29v57q121 0 199 37l2 35q0 96 -53 260q-4 16 -16.5 56t-18.5 61.5t-14 53.5t-11.5 57.5t-3.5 50.5q0 43 19 90q51 121 166 172q-6 41 -6 78q0 90 30 161 q49 115 130 185.5t151 70.5q49 0 84 -36.5t35 -98.5q0 -66 -45 -182l-54 20q41 100 41 162q0 78 -61 78q-51 0 -119 -59.5t-108 -159.5q-27 -72 -27 -141q0 -20 4 -58q76 23 168 23v-58q-96 0 -160 -20q14 -68 33 -125v-2q68 -274 68 -373q0 -94 -31 -164 q-47 -115 -150 -174q-6 -41 -20 -73q-45 -106 -136 -185.5t-202 -79.5q-68 0 -103.5 39t-35.5 101zM586 877q0 -66 61 -263q55 -182 55 -274q57 43 91 123q27 66 26 141q0 39 -7 88t-14 82t-22.5 97.5t-21.5 91.5v-2q-20 66 -31 120q-82 -43 -123 -135q-14 -31 -14 -69z" />
<glyph unicode="&#xa8;" horiz-adv-x="167" d="M338 1032q8 10 53 103l51 -25q-36 -84 -59 -111zM500 1028l55 125l51 -25l-55 -124z" />
<glyph unicode="&#xa9;" horiz-adv-x="1626" d="M199 8q0 129 69 301q131 311 382 498.5t501 187.5q143 0 234.5 -83t91.5 -242q0 -158 -93 -381l-53 24q88 201 88 357q0 135 -71.5 201.5t-196.5 66.5q-233 0 -469 -176t-360 -473q-66 -158 -66 -281q0 -150 95 -224.5t247 -74.5q100 0 213 41t235.5 126t241.5 239.5 t205 359.5l51 -20q-90 -213 -215 -376t-255 -252t-249.5 -132t-226.5 -43q-170 0 -284.5 91t-114.5 265zM563 156q0 84 43 186q63 154 164.5 266.5t192.5 112.5q49 0 72.5 -36t23.5 -83q0 -53 -17 -106l-55 16q14 51 14 90q0 61 -38 62q-70 0 -158 -102.5t-146 -242.5 q-39 -84 -38 -163q0 -125 106 -125q78 0 175.5 79.5t191.5 233.5l49 -29q-102 -166 -212 -254t-204 -88q-76 0 -120 51.5t-44 131.5z" />
<glyph unicode="&#xaa;" horiz-adv-x="514" d="M184 373q0 31 21 88q41 94 119.5 164.5t156.5 70.5q49 0 78 -14l-22 -53q-25 10 -56 10q-59 0 -123.5 -60.5t-99.5 -140.5q-16 -43 -16 -65q0 -25 20 -25q41 0 112.5 75t147.5 210l21 -12l30 -15q-57 -115 -88 -182q-14 -37 -14 -51q0 -10 16 -21l-24 -49q-49 25 -49 70 v10q-86 -92 -152 -92q-35 0 -56.5 24.5t-21.5 57.5z" />
<glyph unicode="&#xab;" horiz-adv-x="604" d="M266 322l27 8l-23 18l211 238l43 -37l-200 -227l51 -179l-53 -16zM414 324l26 6l-20 20l194 201l41 -39l-182 -190l41 -181l-57 -12z" />
<glyph unicode="&#xac;" horiz-adv-x="620" d="M172 274v58h438l-92 -232l-53 21l59 153h-352z" />
<glyph unicode="&#xad;" horiz-adv-x="569" d="M152 360v58h350v-58h-350z" />
<glyph unicode="&#xae;" horiz-adv-x="1382" d="M539 975q0 78 45 190q84 201 245.5 323t317.5 122q94 0 156.5 -55.5t62.5 -159.5q0 -92 -55 -232q30 54 53 109l51 -21q-57 -139 -141 -244.5t-170 -162t-163 -84t-142 -27.5q-104 0 -182 62.5t-78 179.5zM596 975q0 -92 58.5 -138t144.5 -46q115 0 256 87t248 269 l-52 20q57 135 58 228q0 158 -162 157q-139 0 -285.5 -110.5t-224.5 -296.5q-41 -96 -41 -170zM799 944q10 27 88 193q-12 14 -13 32l5 19q2 10 17 24.5t34 18.5q55 131 65 155l54 -20q-12 -31 -66 -158q4 -6 14 -32q57 29 95 114q14 35 14 62q0 57 -84 57v57 q63 0 102 -31.5t39 -82.5q0 -31 -18 -82q-55 -127 -148 -156q0 -2 -3 -38t-3 -52q0 -59 31 -72l-18 -53q-70 23 -70 125q0 8 6 82l-2 2l-86 -184z" />
<glyph unicode="&#xaf;" horiz-adv-x="284" d="M367 1004l2 57l278 -10l-2 -58z" />
<glyph unicode="&#xb0;" horiz-adv-x="458" d="M231 465q0 78 74 162t162 84v-39q33 -6 50.5 -33t17.5 -57q0 -70 -59.5 -143.5t-137.5 -73.5q-49 0 -78 29.5t-29 70.5zM289 465q0 -43 49 -45q53 2 96 56t43 106q0 37 -31 36l-2 35q-59 -12 -107 -74.5t-48 -113.5z" />
<glyph unicode="&#xb1;" horiz-adv-x="634" d="M94 90v57h414v-57h-414zM246 453v57h188l98 235l54 -22l-90 -213h166v-57h-189l-92 -217l-53 22l82 195h-164z" />
<glyph unicode="&#xb2;" horiz-adv-x="464" d="M190 373q16 41 66 41q18 0 47 -13q51 43 105.5 106.5t70.5 102.5q6 10 6 21q-10 4 -12 4h-10q-37 -6 -49 -19l-41 41q27 27 86 35h14q25 0 47.5 -16.5t22.5 -44.5q-1 -16 -11 -43q-18 -43 -69 -104.5t-109 -110.5q18 -12 35 -13q18 0 34.5 12.5t20.5 26.5l56 -20 q-12 -29 -43 -52.5t-68 -23.5q-29 0 -86 29q-41 -29 -65.5 -29t-41 24.5t-6.5 45.5zM242 350q0 2 2 2z" />
<glyph unicode="&#xb3;" horiz-adv-x="477" d="M193 385q0 25 10 61l55 -12q-8 -45 -8 -49q0 -23 12 -31t49 -8t83 28.5t63 67.5v2q4 6 4 15q0 31 -66 30v27l-18 23l100 88h-20q-45 0 -88 6l6 57q39 -6 82 -6q47 0 98 6l2 -28l21 -23l-119 -104q59 -25 59 -76q0 -18 -8 -39v2q-23 -55 -84 -94t-115 -39 q-55 0 -86.5 25.5t-31.5 70.5z" />
<glyph unicode="&#xb4;" horiz-adv-x="196" d="M338 1014l235 92l21 -53l-236 -92z" />
<glyph unicode="&#xb6;" horiz-adv-x="835" d="M303 821q0 119 69.5 254t179.5 228.5t212 93.5q76 0 122 -41t46 -117q0 -66 -45 -178l-449 -1071l-53 20l449 1073q41 94 40 156q0 100 -110 100q-88 0 -183.5 -84t-158 -206.5t-62.5 -227.5q0 -205 244 -205v-57q-152 0 -226.5 74t-74.5 188zM449 -98q0 45 26 110 l545 1297l53 -21l-545 -1298q-23 -47 -22 -88q0 -56 41 -56v-57q-33 0 -65.5 28.5t-32.5 84.5z" />
<glyph unicode="&#xb7;" horiz-adv-x="393" d="M76 326q0 33 36 67.5t87 34.5v-22q39 -14 39 -48q0 -29 -33 -59.5t-70 -30.5q-25 0 -42 18.5t-17 39.5zM133 326h2q27 0 43 26v17q-20 -6 -32.5 -19.5t-12.5 -23.5z" />
<glyph unicode="&#xb8;" horiz-adv-x="163" d="M-156 -195l35 45q18 -12 41 -12q43 0 86 50.5t60 127.5l55 -12q-18 -94 -77.5 -158.5t-123.5 -64.5q-43 -1 -76 24z" />
<glyph unicode="&#xb9;" horiz-adv-x="323" d="M242 528q23 12 74 59.5t85 94.5l2 4l5 4l20 -14l29 -12l-4 -9q-10 -27 -144 -336l-51 23l82 190q-55 -49 -72 -55z" />
<glyph unicode="&#xba;" horiz-adv-x="438" d="M197 389q0 49 24 107q33 76 90.5 138t110.5 62v-26q33 37 55.5 37t35.5 -20.5t13 -45.5q0 -45 -30 -127q-23 -55 -68 -113v-24q-12 0 -18 2q-76 -86 -136 -86q-33 0 -55 27.5t-22 68.5zM254 389q0 -39 20 -39q37 0 91 64q-14 33 -15 59q0 51 31 129l14 29 q-70 -39 -121 -158q-20 -41 -20 -84zM408 471q23 37 34 66q27 61 27 102q-29 -43 -35 -59q-26 -60 -26 -109z" />
<glyph unicode="&#xbb;" horiz-adv-x="604" d="M113 190l182 193l-41 178l55 12l45 -194l-26 -6l20 -21l-194 -200zM244 154l198 225l-51 180l55 16l56 -194l-27 -8l21 -19l-209 -237z" />
<glyph unicode="&#xbf;" horiz-adv-x="464" d="M-236 -489q0 33 17 77q51 121 286.5 396.5t280.5 386.5l53 -21q-49 -119 -284.5 -395.5t-282.5 -386.5q-12 -29 -12 -57q0 -55 65 -56q4 0 29 4q137 23 260 203l47 -33q-68 -98 -147.5 -156.5t-149.5 -70.5q-20 -4 -39 -4q-51 0 -87 31.5t-36 81.5zM397 598q0 29 30 60.5 t65 31.5q23 0 38 -16.5t15 -36.5q0 -33 -34 -70t-79 -37v23q-35 10 -35 45zM451 592q29 12 36 41q-12 -2 -22 -14.5t-10 -20.5l-4 4v-10zM487 635v2v-2z" />
<glyph unicode="&#xc0;" horiz-adv-x="2416" d="M274 276q0 113 43 222l54 -21q-39 -106 -39 -201q0 -154 95 -250t292 -96q274 0 491 126t490 456q-135 16 -205 70.5t-70 124.5q0 90 98.5 166.5t227.5 76.5q121 0 221 -69q209 303 336 479t256 332.5t220 222t165 63.5v-28l25 -15q-160 -264 -504 -1124q166 127 240 270 l49 -26q-94 -186 -328 -340q-201 -512 -274 -723l-29 10l-27 10l2 4q39 162 39 301q0 131 -31 242q-160 -51 -319 -51h-23q-291 -356 -524 -495.5t-526 -139.5q-219 0 -332 115.5t-113 287.5zM1483 707q0 -55 62.5 -94.5t197.5 -45.5q57 68 127 162l72 105q-82 59 -191 59 q-111 0 -189.5 -59t-78.5 -127zM1817 565q137 2 278 49q-39 113 -108 183l-70 -101zM2017 842q82 -76 131 -209q117 43 238 117q332 842 510 1161q-123 -45 -319.5 -290t-559.5 -779zM2165 578q35 -124 35 -261l-2 -43l151 390q-86 -49 -184 -86zM2865 2294l41 41l178 -178 l-41 -41z" />
<glyph unicode="&#xc1;" horiz-adv-x="2416" d="M274 276q0 113 43 222l54 -21q-39 -106 -39 -201q0 -154 95 -250t292 -96q274 0 491 126t490 456q-135 16 -205 70.5t-70 124.5q0 90 98.5 166.5t227.5 76.5q121 0 221 -69q209 303 336 479t256 332.5t220 222t165 63.5v-28l25 -15q-160 -264 -504 -1124q166 127 240 270 l49 -26q-94 -186 -328 -340q-201 -512 -274 -723l-29 10l-27 10l2 4q39 162 39 301q0 131 -31 242q-160 -51 -319 -51h-23q-291 -356 -524 -495.5t-526 -139.5q-219 0 -332 115.5t-113 287.5zM1483 707q0 -55 62.5 -94.5t197.5 -45.5q57 68 127 162l72 105q-82 59 -191 59 q-111 0 -189.5 -59t-78.5 -127zM1817 565q137 2 278 49q-39 113 -108 183l-70 -101zM2017 842q82 -76 131 -209q117 43 238 117q332 842 510 1161q-123 -45 -319.5 -290t-559.5 -779zM2165 578q35 -124 35 -261l-2 -43l151 390q-86 -49 -184 -86zM2826 2169l236 92l20 -53 l-235 -92z" />
<glyph unicode="&#xc2;" horiz-adv-x="2416" d="M274 276q0 113 43 222l54 -21q-39 -106 -39 -201q0 -154 95 -250t292 -96q274 0 491 126t490 456q-135 16 -205 70.5t-70 124.5q0 90 98.5 166.5t227.5 76.5q121 0 221 -69q209 303 336 479t256 332.5t220 222t165 63.5v-28l25 -15q-160 -264 -504 -1124q166 127 240 270 l49 -26q-94 -186 -328 -340q-201 -512 -274 -723l-29 10l-27 10l2 4q39 162 39 301q0 131 -31 242q-160 -51 -319 -51h-23q-291 -356 -524 -495.5t-526 -139.5q-219 0 -332 115.5t-113 287.5zM1483 707q0 -55 62.5 -94.5t197.5 -45.5q57 68 127 162l72 105q-82 59 -191 59 q-111 0 -189.5 -59t-78.5 -127zM1817 565q137 2 278 49q-39 113 -108 183l-70 -101zM2017 842q82 -76 131 -209q117 43 238 117q332 842 510 1161q-123 -45 -319.5 -290t-559.5 -779zM2165 578q35 -124 35 -261l-2 -43l151 390q-86 -49 -184 -86zM2787 2181l226 141l75 -153 l-53 -25l-47 97l-168 -109z" />
<glyph unicode="&#xc3;" horiz-adv-x="2416" d="M274 276q0 113 43 222l54 -21q-39 -106 -39 -201q0 -154 95 -250t292 -96q274 0 491 126t490 456q-135 16 -205 70.5t-70 124.5q0 90 98.5 166.5t227.5 76.5q121 0 221 -69q209 303 336 479t256 332.5t220 222t165 63.5v-28l25 -15q-160 -264 -504 -1124q166 127 240 270 l49 -26q-94 -186 -328 -340q-201 -512 -274 -723l-29 10l-27 10l2 4q39 162 39 301q0 131 -31 242q-160 -51 -319 -51h-23q-291 -356 -524 -495.5t-526 -139.5q-219 0 -332 115.5t-113 287.5zM1483 707q0 -55 62.5 -94.5t197.5 -45.5q57 68 127 162l72 105q-82 59 -191 59 q-111 0 -189.5 -59t-78.5 -127zM1817 565q137 2 278 49q-39 113 -108 183l-70 -101zM2017 842q82 -76 131 -209q117 43 238 117q332 842 510 1161q-123 -45 -319.5 -290t-559.5 -779zM2165 578q35 -124 35 -261l-2 -43l151 390q-86 -49 -184 -86zM2750 2204q61 61 115 61 q39 0 67.5 -26.5t49 -52t39.5 -25.5q8 0 14 2l-2 -2q33 12 88 67l41 -41q-68 -68 -113 -80l-2 -2q-10 -2 -26 -2q-51 0 -95 52.5t-61 52.5q-29 0 -74 -45z" />
<glyph unicode="&#xc4;" horiz-adv-x="2416" d="M274 276q0 113 43 222l54 -21q-39 -106 -39 -201q0 -154 95 -250t292 -96q274 0 491 126t490 456q-135 16 -205 70.5t-70 124.5q0 90 98.5 166.5t227.5 76.5q121 0 221 -69q209 303 336 479t256 332.5t220 222t165 63.5v-28l25 -15q-160 -264 -504 -1124q166 127 240 270 l49 -26q-94 -186 -328 -340q-201 -512 -274 -723l-29 10l-27 10l2 4q39 162 39 301q0 131 -31 242q-160 -51 -319 -51h-23q-291 -356 -524 -495.5t-526 -139.5q-219 0 -332 115.5t-113 287.5zM1483 707q0 -55 62.5 -94.5t197.5 -45.5q57 68 127 162l72 105q-82 59 -191 59 q-111 0 -189.5 -59t-78.5 -127zM1817 565q137 2 278 49q-39 113 -108 183l-70 -101zM2017 842q82 -76 131 -209q117 43 238 117q332 842 510 1161q-123 -45 -319.5 -290t-559.5 -779zM2165 578q35 -124 35 -261l-2 -43l151 390q-86 -49 -184 -86zM2818 2187q8 11 53 103 l54 -25q-43 -84 -62 -111zM2978 2183l55 125l53 -24l-55 -125z" />
<glyph unicode="&#xc5;" horiz-adv-x="2416" d="M274 276q0 113 43 222l54 -21q-39 -106 -39 -201q0 -154 95 -250t292 -96q274 0 491 126t490 456q-135 16 -205 70.5t-70 124.5q0 90 98.5 166.5t227.5 76.5q121 0 221 -69q209 303 336 479t256 332.5t220 222t165 63.5v-28l25 -15q-160 -264 -504 -1124q166 127 240 270 l49 -26q-94 -186 -328 -340q-201 -512 -274 -723l-29 10l-27 10l2 4q39 162 39 301q0 131 -31 242q-160 -51 -319 -51h-23q-291 -356 -524 -495.5t-526 -139.5q-219 0 -332 115.5t-113 287.5zM1483 707q0 -55 62.5 -94.5t197.5 -45.5q57 68 127 162l72 105q-82 59 -191 59 q-111 0 -189.5 -59t-78.5 -127zM1817 565q137 2 278 49q-39 113 -108 183l-70 -101zM2017 842q82 -76 131 -209q117 43 238 117q332 842 510 1161q-123 -45 -319.5 -290t-559.5 -779zM2165 578q35 -124 35 -261l-2 -43l151 390q-86 -49 -184 -86zM2824 2093q0 51 52.5 117.5 t109.5 68.5v31q35 0 54.5 -23.5t19.5 -54.5q0 -61 -54.5 -134t-115.5 -73q-31 0 -48.5 21.5t-17.5 46.5zM2882 2093q0 -10 8 -10q35 0 73.5 54t38.5 95q0 16 -12 21v-31q-35 0 -71.5 -46t-36.5 -83z" />
<glyph unicode="&#xc6;" horiz-adv-x="3164" d="M274 268q0 104 48 226l53 -21q-43 -104 -43 -205q0 -147 101.5 -242.5t303.5 -95.5q446 0 930 574l-57 -2q-209 0 -312.5 49t-103.5 127q0 88 124 161.5t290 73.5q172 0 307 -90q514 686 582 772q236 295 360 357q47 23 92 22v-28l25 -15q-43 -74 -113 -215 q176 117 365.5 186.5t316.5 69.5q80 0 133 -32.5t60 -92.5l-58 -4q-6 72 -135 72q-137 0 -344 -82t-387 -221q-158 -340 -358 -854q41 14 175 63t184 66.5t141 46.5t146.5 39t98.5 10v-57q-53 0 -145.5 -23.5t-168 -50.5t-230 -82t-230.5 -82l-244 -637q39 8 84 8 q51 0 165 -16t185 -16q324 0 680 387l41 -37q-373 -408 -721 -408q-78 0 -191.5 16.5t-158.5 16.5q-59 0 -121 -18l-6 16l-4 2l-31 6q31 123 31 234q0 180 -74 331q-174 -47 -313 -63q-526 -637 -1010 -637q-227 0 -345 113.5t-118 281.5zM1251 678q0 -29 33 -54.5t118 -45 t208 -19.5q53 0 108 6q6 8 46 58.5t61 78.5l55 76q-121 78 -272 78q-145 0 -251 -57.5t-106 -120.5zM1798 575q86 12 232 50q-45 70 -103 118l-55 -73zM1960 788q74 -61 127 -149q129 39 293 94q350 877 514 1172q-111 -43 -334 -322q-98 -123 -600 -795zM2116 588 q75 -156 75 -342l162 418q-145 -49 -237 -76z" />
<glyph unicode="&#xc7;" horiz-adv-x="1689" d="M410 475q0 240 139 576q100 242 263 457.5t359.5 357t370.5 141.5q131 0 206 -63.5t91 -169.5q86 36 152 36v-57q-61 0 -148 -41v-2q0 -158 -98 -399q-78 -186 -203 -322.5t-233 -136.5q-53 0 -83 38t-30 91q0 72 39 164q82 193 235.5 355.5t313.5 246.5 q-16 203 -242 203q-240 0 -514 -279.5t-426 -642.5q-135 -315 -135 -553q0 -225 126 -346t382 -121q227 0 458.5 120t387.5 288l41 -41q-152 -162 -378.5 -284t-453.5 -138q-16 -88 -73.5 -145.5t-120.5 -57.5q-41 0 -76 23l33 49q20 -14 43 -15q43 0 82.5 40t54.5 104 q-274 0 -418.5 140t-144.5 384zM1253 981q0 -72 56 -72q88 0 198.5 125t184.5 299q86 203 94 350q-147 -86 -285.5 -234.5t-212.5 -326.5q-35 -80 -35 -141z" />
<glyph unicode="&#xc8;" horiz-adv-x="1429" d="M307 340q0 133 70 301q61 158 206.5 322.5t317.5 250.5q-16 43 -16 95q0 100 57 239q74 176 232.5 321.5t330.5 145.5q129 0 195 -94q139 119 268 119v-58q-111 0 -242 -110q23 -57 23 -127q0 -84 -28.5 -151.5t-78 -118t-100.5 -50.5q-45 0 -70.5 28t-25.5 69 q0 68 59.5 172t151.5 190q-49 74 -152 74q-154 0 -298 -134t-212 -298q-53 -121 -53 -217q0 -35 10 -70q117 47 222 47q115 0 175 -29.5t60 -76.5q0 -20 -6 -33q-14 -41 -64.5 -69.5t-128.5 -28.5q-205 0 -284 114q-162 -82 -300.5 -236.5t-195.5 -305.5q-66 -152 -65 -281 q0 -158 107.5 -245t320.5 -87q125 0 259 51.5t237.5 125t170 132t99.5 97.5l45 -37q-37 -41 -105.5 -101.5t-179.5 -139.5t-252 -132t-274 -53q-236 0 -361 104.5t-125 284.5zM979 1188q61 -82 231 -82q117 0 140 61q2 4 2 13q0 12 -15.5 22t-58.5 18.5t-104 8.5 q-96 0 -195 -41zM1493 2294l41 41l178 -178l-41 -41zM1503 1522q0 -39 39 -39q31 0 66.5 39t58.5 94q25 49 25 129q0 39 -11 84q-76 -76 -127 -164t-51 -143z" />
<glyph unicode="&#xc9;" horiz-adv-x="1429" d="M307 340q0 133 70 301q61 158 206.5 322.5t317.5 250.5q-16 43 -16 95q0 100 57 239q74 176 232.5 321.5t330.5 145.5q129 0 195 -94q139 119 268 119v-58q-111 0 -242 -110q23 -57 23 -127q0 -84 -28.5 -151.5t-78 -118t-100.5 -50.5q-45 0 -70.5 28t-25.5 69 q0 68 59.5 172t151.5 190q-49 74 -152 74q-154 0 -298 -134t-212 -298q-53 -121 -53 -217q0 -35 10 -70q117 47 222 47q115 0 175 -29.5t60 -76.5q0 -20 -6 -33q-14 -41 -64.5 -69.5t-128.5 -28.5q-205 0 -284 114q-162 -82 -300.5 -236.5t-195.5 -305.5q-66 -152 -65 -281 q0 -158 107.5 -245t320.5 -87q125 0 259 51.5t237.5 125t170 132t99.5 97.5l45 -37q-37 -41 -105.5 -101.5t-179.5 -139.5t-252 -132t-274 -53q-236 0 -361 104.5t-125 284.5zM979 1188q61 -82 231 -82q117 0 140 61q2 4 2 13q0 12 -15.5 22t-58.5 18.5t-104 8.5 q-96 0 -195 -41zM1454 2169l236 92l20 -53l-235 -92zM1503 1522q0 -39 39 -39q31 0 66.5 39t58.5 94q25 49 25 129q0 39 -11 84q-76 -76 -127 -164t-51 -143z" />
<glyph unicode="&#xca;" horiz-adv-x="1429" d="M307 340q0 133 70 301q61 158 206.5 322.5t317.5 250.5q-16 43 -16 95q0 100 57 239q74 176 232.5 321.5t330.5 145.5q129 0 195 -94q139 119 268 119v-58q-111 0 -242 -110q23 -57 23 -127q0 -84 -28.5 -151.5t-78 -118t-100.5 -50.5q-45 0 -70.5 28t-25.5 69 q0 68 59.5 172t151.5 190q-49 74 -152 74q-154 0 -298 -134t-212 -298q-53 -121 -53 -217q0 -35 10 -70q117 47 222 47q115 0 175 -29.5t60 -76.5q0 -20 -6 -33q-14 -41 -64.5 -69.5t-128.5 -28.5q-205 0 -284 114q-162 -82 -300.5 -236.5t-195.5 -305.5q-66 -152 -65 -281 q0 -158 107.5 -245t320.5 -87q125 0 259 51.5t237.5 125t170 132t99.5 97.5l45 -37q-37 -41 -105.5 -101.5t-179.5 -139.5t-252 -132t-274 -53q-236 0 -361 104.5t-125 284.5zM979 1188q61 -82 231 -82q117 0 140 61q2 4 2 13q0 12 -15.5 22t-58.5 18.5t-104 8.5 q-96 0 -195 -41zM1417 2181l225 141l76 -153l-53 -25l-47 97l-168 -109zM1503 1522q0 -39 39 -39q31 0 66.5 39t58.5 94q25 49 25 129q0 39 -11 84q-76 -76 -127 -164t-51 -143z" />
<glyph unicode="&#xcb;" horiz-adv-x="1429" d="M307 340q0 133 70 301q61 158 206.5 322.5t317.5 250.5q-16 43 -16 95q0 100 57 239q74 176 232.5 321.5t330.5 145.5q129 0 195 -94q139 119 268 119v-58q-111 0 -242 -110q23 -57 23 -127q0 -84 -28.5 -151.5t-78 -118t-100.5 -50.5q-45 0 -70.5 28t-25.5 69 q0 68 59.5 172t151.5 190q-49 74 -152 74q-154 0 -298 -134t-212 -298q-53 -121 -53 -217q0 -35 10 -70q117 47 222 47q115 0 175 -29.5t60 -76.5q0 -20 -6 -33q-14 -41 -64.5 -69.5t-128.5 -28.5q-205 0 -284 114q-162 -82 -300.5 -236.5t-195.5 -305.5q-66 -152 -65 -281 q0 -158 107.5 -245t320.5 -87q125 0 259 51.5t237.5 125t170 132t99.5 97.5l45 -37q-37 -41 -105.5 -101.5t-179.5 -139.5t-252 -132t-274 -53q-236 0 -361 104.5t-125 284.5zM979 1188q61 -82 231 -82q117 0 140 61q2 4 2 13q0 12 -15.5 22t-58.5 18.5t-104 8.5 q-96 0 -195 -41zM1446 2187q8 11 53 103l53 -25q-43 -84 -61 -111zM1503 1522q0 -39 39 -39q31 0 66.5 39t58.5 94q25 49 25 129q0 39 -11 84q-76 -76 -127 -164t-51 -143zM1606 2183l55 125l53 -24l-55 -125z" />
<glyph unicode="&#xcc;" horiz-adv-x="1564" d="M301 340q0 96 35 203l29 -8l26 8q29 -90 154 -152.5t303 -62.5q182 0 319 59l25 -51q-150 -66 -344 -66q-162 0 -288 52.5t-187 134.5q-14 -59 -15 -117q0 -164 113 -249t279 -85q227 0 378.5 148.5t262.5 416.5q-82 -16 -183 -16q-193 0 -329 67.5t-136 188.5 q0 39 21 90q47 109 205.5 247t416.5 327q27 20 85.5 63t86 64.5t79 60.5t80 61.5t69.5 56.5t65.5 57.5t53 50t47.5 49t33 42.5l49 -30q-104 -166 -285.5 -648.5t-261.5 -652.5q301 82 385 283l53 -23q-51 -123 -177 -205.5t-290 -119.5q-117 -297 -284.5 -466t-423.5 -169 q-184 0 -316.5 101.5t-132.5 289.5zM801 811q0 -90 117.5 -144.5t289.5 -54.5q111 0 207 21l4 8q88 188 238.5 589.5t224.5 557.5q-113 -98 -461 -358q-260 -193 -410.5 -323t-193.5 -228q-16 -33 -16 -68zM1968 2294l41 41l178 -178l-41 -41z" />
<glyph unicode="&#xcd;" horiz-adv-x="1564" d="M301 340q0 96 35 203l29 -8l26 8q29 -90 154 -152.5t303 -62.5q182 0 319 59l25 -51q-150 -66 -344 -66q-162 0 -288 52.5t-187 134.5q-14 -59 -15 -117q0 -164 113 -249t279 -85q227 0 378.5 148.5t262.5 416.5q-82 -16 -183 -16q-193 0 -329 67.5t-136 188.5 q0 39 21 90q47 109 205.5 247t416.5 327q27 20 85.5 63t86 64.5t79 60.5t80 61.5t69.5 56.5t65.5 57.5t53 50t47.5 49t33 42.5l49 -30q-104 -166 -285.5 -648.5t-261.5 -652.5q301 82 385 283l53 -23q-51 -123 -177 -205.5t-290 -119.5q-117 -297 -284.5 -466t-423.5 -169 q-184 0 -316.5 101.5t-132.5 289.5zM801 811q0 -90 117.5 -144.5t289.5 -54.5q111 0 207 21l4 8q88 188 238.5 589.5t224.5 557.5q-113 -98 -461 -358q-260 -193 -410.5 -323t-193.5 -228q-16 -33 -16 -68zM1929 2169l236 92l20 -53l-235 -92z" />
<glyph unicode="&#xce;" horiz-adv-x="1564" d="M301 340q0 96 35 203l29 -8l26 8q29 -90 154 -152.5t303 -62.5q182 0 319 59l25 -51q-150 -66 -344 -66q-162 0 -288 52.5t-187 134.5q-14 -59 -15 -117q0 -164 113 -249t279 -85q227 0 378.5 148.5t262.5 416.5q-82 -16 -183 -16q-193 0 -329 67.5t-136 188.5 q0 39 21 90q47 109 205.5 247t416.5 327q27 20 85.5 63t86 64.5t79 60.5t80 61.5t69.5 56.5t65.5 57.5t53 50t47.5 49t33 42.5l49 -30q-104 -166 -285.5 -648.5t-261.5 -652.5q301 82 385 283l53 -23q-51 -123 -177 -205.5t-290 -119.5q-117 -297 -284.5 -466t-423.5 -169 q-184 0 -316.5 101.5t-132.5 289.5zM801 811q0 -90 117.5 -144.5t289.5 -54.5q111 0 207 21l4 8q88 188 238.5 589.5t224.5 557.5q-113 -98 -461 -358q-260 -193 -410.5 -323t-193.5 -228q-16 -33 -16 -68zM1890 2181l226 141l75 -153l-53 -25l-47 97l-168 -109z" />
<glyph unicode="&#xcf;" horiz-adv-x="1564" d="M301 340q0 96 35 203l29 -8l26 8q29 -90 154 -152.5t303 -62.5q182 0 319 59l25 -51q-150 -66 -344 -66q-162 0 -288 52.5t-187 134.5q-14 -59 -15 -117q0 -164 113 -249t279 -85q227 0 378.5 148.5t262.5 416.5q-82 -16 -183 -16q-193 0 -329 67.5t-136 188.5 q0 39 21 90q47 109 205.5 247t416.5 327q27 20 85.5 63t86 64.5t79 60.5t80 61.5t69.5 56.5t65.5 57.5t53 50t47.5 49t33 42.5l49 -30q-104 -166 -285.5 -648.5t-261.5 -652.5q301 82 385 283l53 -23q-51 -123 -177 -205.5t-290 -119.5q-117 -297 -284.5 -466t-423.5 -169 q-184 0 -316.5 101.5t-132.5 289.5zM801 811q0 -90 117.5 -144.5t289.5 -54.5q111 0 207 21l4 8q88 188 238.5 589.5t224.5 557.5q-113 -98 -461 -358q-260 -193 -410.5 -323t-193.5 -228q-16 -33 -16 -68zM1921 2187q8 11 53 103l54 -25q-43 -84 -62 -111zM2081 2183 l55 125l53 -24l-55 -125z" />
<glyph unicode="&#xd0;" horiz-adv-x="1787" d="M307 264q0 72 37 166l53 -22q-33 -74 -32 -144q0 -113 96 -180.5t303 -67.5q309 0 644 290t536 765l18 49q-215 -88 -455 -88q-254 0 -417 82l-82 -199q-4 -12 -15.5 -38.5t-17.5 -40.5h135v-58h-160q-236 -537 -352 -592l-25 54q92 41 314 538h-127v58h153l43 102 q57 135 84 205q-137 90 -137 248q0 86 43 190q80 190 277.5 312t406.5 122q233 0 348 -144.5t115 -365.5q0 -127 -37 -278q164 88 285 218t180 273l53 -20q-68 -162 -209 -308.5t-331 -238.5q-18 -57 -37 -100q-137 -326 -348 -578t-441.5 -383t-443.5 -131q-227 0 -342 85 t-115 220zM961 1391q0 -119 102 -195q197 471 293 520l26 -49q-74 -37 -270 -502q145 -75 395 -75q254 0 480 102q49 158 49 313q0 203 -98.5 328t-307.5 125q-193 0 -375 -111.5t-256 -285.5q-39 -88 -38 -170z" />
<glyph unicode="&#xd1;" horiz-adv-x="2342" d="M276 274q0 111 39 220l54 -21q-35 -109 -35 -199q0 -143 83 -228t257 -85q176 0 383 113.5t398.5 299t360.5 398.5t298 430q-49 307 -50 440q0 111 25 177v2q68 156 190 155q55 0 87 -52t32 -132q0 -63 -16 -150q-55 -186 -209 -450l37 -244v-2q18 -178 18 -358 q0 -109 -8 -197q190 465 342 746q-84 -6 -172 -7v58q98 0 207 10q444 780 946 780q72 0 115 -40t43 -103q0 -66 -42 -145.5t-131 -166.5t-212 -164t-302.5 -135.5t-381.5 -80.5q-51 -92 -101.5 -192.5t-98.5 -209t-78 -178t-77 -184.5t-59 -143l-16 6q-23 -131 -68 -252 l-53 20q90 231 90 578q0 176 -19 352h2l-26 176q-137 -219 -307 -427t-362.5 -387t-399.5 -288.5t-385 -109.5q-197 0 -297.5 105.5t-100.5 264.5zM2122 1642q0 -117 37 -360q119 213 165 373q16 86 17 137q0 127 -62 127q-86 0 -137 -121v2q-20 -62 -20 -158zM2666 1204 q231 31 426 109t310.5 172t178 186t62.5 164q0 86 -100 86q-459 0 -877 -717zM2677 2204q61 61 114 61q39 0 68 -26.5t49.5 -52t38.5 -25.5q8 0 14 2l-2 -2q33 12 88 67l41 -41q-68 -68 -112 -80l-2 -2q-10 -2 -27 -2q-51 0 -95.5 52.5t-60.5 52.5q-29 0 -73 -45z" />
<glyph unicode="&#xd2;" horiz-adv-x="1972" d="M924 342q0 256 151 619q160 383 438 671q-35 -2 -112 -2v58q94 0 174 6q154 145 305.5 225t259.5 80q53 0 86 -23.5t33 -56.5q0 -51 -66.5 -106.5t-224.5 -106.5t-371 -68q-301 -295 -471 -698q-145 -348 -145 -598q0 -334 266 -334q207 0 472.5 265.5t434.5 670.5 q121 283 121 457q0 201 -168 201q-143 0 -310 -169t-269 -413q-72 -170 -72 -318q0 -184 141 -184v-57q-102 0 -150 68.5t-48 172.5q0 156 76 340q109 256 288.5 436.5t343.5 180.5q104 0 165 -66.5t61 -191.5q0 -178 -125 -479q-176 -420 -455.5 -695.5t-505.5 -275.5 q-162 0 -242.5 106.5t-80.5 284.5zM1669 1702q172 20 300 64t180.5 84t52.5 69q-1 23 -62 23q-90 0 -214 -62.5t-257 -177.5zM2101 2294l41 41l178 -178l-41 -41z" />
<glyph unicode="&#xd3;" horiz-adv-x="1972" d="M924 342q0 256 151 619q160 383 438 671q-35 -2 -112 -2v58q94 0 174 6q154 145 305.5 225t259.5 80q53 0 86 -23.5t33 -56.5q0 -51 -66.5 -106.5t-224.5 -106.5t-371 -68q-301 -295 -471 -698q-145 -348 -145 -598q0 -334 266 -334q207 0 472.5 265.5t434.5 670.5 q121 283 121 457q0 201 -168 201q-143 0 -310 -169t-269 -413q-72 -170 -72 -318q0 -184 141 -184v-57q-102 0 -150 68.5t-48 172.5q0 156 76 340q109 256 288.5 436.5t343.5 180.5q104 0 165 -66.5t61 -191.5q0 -178 -125 -479q-176 -420 -455.5 -695.5t-505.5 -275.5 q-162 0 -242.5 106.5t-80.5 284.5zM1669 1702q172 20 300 64t180.5 84t52.5 69q-1 23 -62 23q-90 0 -214 -62.5t-257 -177.5zM2062 2169l236 92l20 -53l-235 -92z" />
<glyph unicode="&#xd4;" horiz-adv-x="1972" d="M924 342q0 256 151 619q160 383 438 671q-35 -2 -112 -2v58q94 0 174 6q154 145 305.5 225t259.5 80q53 0 86 -23.5t33 -56.5q0 -51 -66.5 -106.5t-224.5 -106.5t-371 -68q-301 -295 -471 -698q-145 -348 -145 -598q0 -334 266 -334q207 0 472.5 265.5t434.5 670.5 q121 283 121 457q0 201 -168 201q-143 0 -310 -169t-269 -413q-72 -170 -72 -318q0 -184 141 -184v-57q-102 0 -150 68.5t-48 172.5q0 156 76 340q109 256 288.5 436.5t343.5 180.5q104 0 165 -66.5t61 -191.5q0 -178 -125 -479q-176 -420 -455.5 -695.5t-505.5 -275.5 q-162 0 -242.5 106.5t-80.5 284.5zM1669 1702q172 20 300 64t180.5 84t52.5 69q-1 23 -62 23q-90 0 -214 -62.5t-257 -177.5zM2025 2181l226 141l76 -153l-54 -25l-47 97l-168 -109z" />
<glyph unicode="&#xd5;" horiz-adv-x="1972" d="M924 342q0 256 151 619q160 383 438 671q-35 -2 -112 -2v58q94 0 174 6q154 145 305.5 225t259.5 80q53 0 86 -23.5t33 -56.5q0 -51 -66.5 -106.5t-224.5 -106.5t-371 -68q-301 -295 -471 -698q-145 -348 -145 -598q0 -334 266 -334q207 0 472.5 265.5t434.5 670.5 q121 283 121 457q0 201 -168 201q-143 0 -310 -169t-269 -413q-72 -170 -72 -318q0 -184 141 -184v-57q-102 0 -150 68.5t-48 172.5q0 156 76 340q109 256 288.5 436.5t343.5 180.5q104 0 165 -66.5t61 -191.5q0 -178 -125 -479q-176 -420 -455.5 -695.5t-505.5 -275.5 q-162 0 -242.5 106.5t-80.5 284.5zM1669 1702q172 20 300 64t180.5 84t52.5 69q-1 23 -62 23q-90 0 -214 -62.5t-257 -177.5zM1989 2204q61 61 114 61q39 0 68 -26.5t49.5 -52t38.5 -25.5q8 0 14 2l-2 -2q33 12 88 67l41 -41q-68 -68 -112 -80l-2 -2q-10 -2 -27 -2 q-51 0 -95.5 52.5t-60.5 52.5q-29 0 -73 -45z" />
<glyph unicode="&#xd6;" horiz-adv-x="1972" d="M924 342q0 256 151 619q160 383 438 671q-35 -2 -112 -2v58q94 0 174 6q154 145 305.5 225t259.5 80q53 0 86 -23.5t33 -56.5q0 -51 -66.5 -106.5t-224.5 -106.5t-371 -68q-301 -295 -471 -698q-145 -348 -145 -598q0 -334 266 -334q207 0 472.5 265.5t434.5 670.5 q121 283 121 457q0 201 -168 201q-143 0 -310 -169t-269 -413q-72 -170 -72 -318q0 -184 141 -184v-57q-102 0 -150 68.5t-48 172.5q0 156 76 340q109 256 288.5 436.5t343.5 180.5q104 0 165 -66.5t61 -191.5q0 -178 -125 -479q-176 -420 -455.5 -695.5t-505.5 -275.5 q-162 0 -242.5 106.5t-80.5 284.5zM1669 1702q172 20 300 64t180.5 84t52.5 69q-1 23 -62 23q-90 0 -214 -62.5t-257 -177.5zM2054 2187q8 11 53 103l54 -25q-43 -84 -62 -111zM2214 2183l55 125l53 -24l-55 -125z" />
<glyph unicode="&#xd7;" horiz-adv-x="479" d="M53 92l213 213l-33 209l58 8l26 -166l183 183l41 -41l-211 -211l32 -211l-57 -8l-26 168l-185 -185z" />
<glyph unicode="&#xd8;" horiz-adv-x="1972" d="M924 342q0 256 151 619q160 383 438 671q-35 -2 -112 -2v58q94 0 174 6q154 145 305.5 225t259.5 80q53 0 86 -23.5t33 -56.5q0 -51 -66.5 -106.5t-224.5 -106.5t-371 -68q-301 -295 -471 -698q-145 -348 -145 -598q0 -303 223 -332l281 484q-86 59 -86 208q0 156 76 340 q109 256 289 436.5t343 180.5q20 0 54 -4l120 207l50 -29l-115 -197q117 -59 117 -235q0 -178 -125 -479q-176 -420 -455.5 -695.5t-505.5 -275.5h-12l-53 -90l-49 28l38 68q-123 25 -185 127t-62 258zM1268 8q207 16 463.5 278.5t422.5 657.5q121 283 121 457 q0 145 -88 186l-620 -1067q8 -2 30 -2v-57q-37 0 -61 8zM1456 702q0 -117 57 -159l617 1059h-23q-143 0 -310 -169t-269 -413q-72 -171 -72 -318zM1669 1702q172 20 300 64t180.5 84t52.5 69q-1 23 -62 23q-90 0 -214 -62.5t-257 -177.5z" />
<glyph unicode="&#xd9;" horiz-adv-x="1722" d="M678 1210q0 133 74 316q84 197 244.5 329t320.5 132q98 0 148.5 -64.5t50.5 -173.5q0 -229 -193 -684l-96 -225q20 -2 63 -2v-58q-59 0 -88 2q-29 -66 -68.5 -155.5t-67.5 -153t-44 -104.5q-80 -193 -80 -287q0 -78 55 -78q88 0 259 190.5t358 473.5q72 334 189.5 591 t195.5 257q29 0 45 -22.5t16 -51.5q0 -90 -111.5 -314.5t-277.5 -476.5q-66 -301 -65 -528q0 -479 260 -576l-21 -53q-154 57 -225.5 225t-71.5 404q0 180 37 401q-176 -252 -335.5 -414.5t-252.5 -162.5q-49 0 -80.5 36.5t-31.5 98.5q0 104 84 307l174 399 q-221 29 -343 136.5t-122 285.5zM735 1210q0 -160 110.5 -253t321.5 -113l103 241q188 444 188 664q0 180 -141 180q-143 0 -288.5 -120.5t-223.5 -303.5q-70 -166 -70 -295zM1714 827q289 469 289 615q0 16 -4 16q-43 0 -128 -187.5t-157 -443.5zM1894 2294l41 41l179 -178 l-41 -41z" />
<glyph unicode="&#xda;" horiz-adv-x="1722" d="M678 1210q0 133 74 316q84 197 244.5 329t320.5 132q98 0 148.5 -64.5t50.5 -173.5q0 -229 -193 -684l-96 -225q20 -2 63 -2v-58q-59 0 -88 2q-29 -66 -68.5 -155.5t-67.5 -153t-44 -104.5q-80 -193 -80 -287q0 -78 55 -78q88 0 259 190.5t358 473.5q72 334 189.5 591 t195.5 257q29 0 45 -22.5t16 -51.5q0 -90 -111.5 -314.5t-277.5 -476.5q-66 -301 -65 -528q0 -479 260 -576l-21 -53q-154 57 -225.5 225t-71.5 404q0 180 37 401q-176 -252 -335.5 -414.5t-252.5 -162.5q-49 0 -80.5 36.5t-31.5 98.5q0 104 84 307l174 399 q-221 29 -343 136.5t-122 285.5zM735 1210q0 -160 110.5 -253t321.5 -113l103 241q188 444 188 664q0 180 -141 180q-143 0 -288.5 -120.5t-223.5 -303.5q-70 -166 -70 -295zM1714 827q289 469 289 615q0 16 -4 16q-43 0 -128 -187.5t-157 -443.5zM1855 2169l236 92l20 -53 l-235 -92z" />
<glyph unicode="&#xdb;" horiz-adv-x="1722" d="M678 1210q0 133 74 316q84 197 244.5 329t320.5 132q98 0 148.5 -64.5t50.5 -173.5q0 -229 -193 -684l-96 -225q20 -2 63 -2v-58q-59 0 -88 2q-29 -66 -68.5 -155.5t-67.5 -153t-44 -104.5q-80 -193 -80 -287q0 -78 55 -78q88 0 259 190.5t358 473.5q72 334 189.5 591 t195.5 257q29 0 45 -22.5t16 -51.5q0 -90 -111.5 -314.5t-277.5 -476.5q-66 -301 -65 -528q0 -479 260 -576l-21 -53q-154 57 -225.5 225t-71.5 404q0 180 37 401q-176 -252 -335.5 -414.5t-252.5 -162.5q-49 0 -80.5 36.5t-31.5 98.5q0 104 84 307l174 399 q-221 29 -343 136.5t-122 285.5zM735 1210q0 -160 110.5 -253t321.5 -113l103 241q188 444 188 664q0 180 -141 180q-143 0 -288.5 -120.5t-223.5 -303.5q-70 -166 -70 -295zM1714 827q289 469 289 615q0 16 -4 16q-43 0 -128 -187.5t-157 -443.5zM1817 2181l225 141 l76 -153l-54 -25l-47 97l-168 -109z" />
<glyph unicode="&#xdc;" horiz-adv-x="1722" d="M678 1210q0 133 74 316q84 197 244.5 329t320.5 132q98 0 148.5 -64.5t50.5 -173.5q0 -229 -193 -684l-96 -225q20 -2 63 -2v-58q-59 0 -88 2q-29 -66 -68.5 -155.5t-67.5 -153t-44 -104.5q-80 -193 -80 -287q0 -78 55 -78q88 0 259 190.5t358 473.5q72 334 189.5 591 t195.5 257q29 0 45 -22.5t16 -51.5q0 -90 -111.5 -314.5t-277.5 -476.5q-66 -301 -65 -528q0 -479 260 -576l-21 -53q-154 57 -225.5 225t-71.5 404q0 180 37 401q-176 -252 -335.5 -414.5t-252.5 -162.5q-49 0 -80.5 36.5t-31.5 98.5q0 104 84 307l174 399 q-221 29 -343 136.5t-122 285.5zM735 1210q0 -160 110.5 -253t321.5 -113l103 241q188 444 188 664q0 180 -141 180q-143 0 -288.5 -120.5t-223.5 -303.5q-70 -166 -70 -295zM1714 827q289 469 289 615q0 16 -4 16q-43 0 -128 -187.5t-157 -443.5zM1847 2187q9 11 54 103 l53 -25q-43 -84 -62 -111zM2007 2183l55 125l54 -24l-56 -125z" />
<glyph unicode="&#xdd;" horiz-adv-x="1724" d="M676 -985q0 133 67 299q154 365 590 506l285 749q-348 -618 -571 -618q-61 0 -94 42t-33 111q0 150 122 439l35 82q-186 53 -286.5 205.5t-100.5 357.5q0 199 90 414q63 154 189.5 275.5t279.5 121.5q129 0 196.5 -85t67.5 -228q0 -205 -133 -531q-6 -16 -223 -491 q49 -8 113 -9v-57q-74 0 -135 12l-39 -88q-119 -279 -119 -418q0 -96 70 -96q59 0 129.5 52.5t148.5 159t149.5 218t161.5 283.5t153.5 299t156.5 315q20 43 32.5 67.5t30 60.5t31.5 65l51 -25q-141 -287 -283.5 -623.5t-212 -522t-192.5 -517.5q150 39 323 54l5 -58 q-199 -16 -353 -61q-137 -362 -161 -418q-115 -266 -210.5 -399.5t-199.5 -133.5q-63 0 -97 54.5t-34 136.5zM733 -985q0 -133 74 -133q80 0 165 122.5t191 374.5q74 176 146 373q-377 -137 -512 -459q-63 -150 -64 -278zM748 1188q0 -193 90 -329t262 -183q29 61 109.5 236 t117.5 264q129 309 129 510q0 256 -207 256q-133 0 -245.5 -111t-169.5 -250q-86 -198 -86 -393zM1909 2169l235 92l21 -53l-236 -92z" />
<glyph unicode="&#xde;" horiz-adv-x="1507" d="M469 18q0 188 176 609q111 262 272.5 454.5t350.5 288.5q141 391 205 586l30 -10h27q-2 -63 41 -111.5t125 -42.5l4 -57q-143 -8 -203 108l-154 -438q127 49 256.5 49t212 -82t82.5 -217q0 -109 -59 -256q-59 -139 -164.5 -247.5t-235.5 -174t-264.5 -102.5t-273.5 -47 q-219 -436 -348 -437q-35 0 -57.5 36t-22.5 91zM526 18q0 -69 23 -69q96 0 282 375h-43v57q47 0 72 2q160 326 377 905q-338 -203 -539 -682q-172 -406 -172 -588zM928 387q131 12 254 48t240.5 98.5t212 161t147.5 225.5q55 131 55 235q0 115 -64.5 178.5t-173.5 63.5 q-141 0 -282 -66q-211 -582 -389 -944z" />
<glyph unicode="&#xdf;" horiz-adv-x="823" d="M-274 -516q29 43 75.5 140t116.5 258t126 291t151.5 356.5t142.5 336.5q225 588 307 733q72 129 117 132q29 0 45 -28t16 -65q0 -145 -114 -417q-152 -362 -320 -600q98 57 168 57q66 0 103.5 -37t37.5 -100.5t-41 -163.5q-43 -98 -106 -193q239 70 403 232l39 -41 q-193 -193 -497 -264q-168 -203 -318 -203q-45 0 -73.5 21.5t-28.5 52.5q0 4 6 34q20 76 272 123q23 4 111 23q86 104 141 237q35 84 35 142q0 80 -84 80q-104 0 -326 -187l-10 12q-367 -870 -446 -993zM133 -18q0 -17 45 -17q102 0 223 125l-36 -6q-217 -43 -228 -84 q-4 -10 -4 -18zM268 557q199 233 387 684q111 262 111 397q0 35 -4 35q-58 0 -371 -827z" />
<glyph unicode="&#xe0;" d="M-2 90q0 68 41 160q74 176 221.5 311t294.5 135q78 0 139 -30l-26 -50q-43 23 -113 23q-129 0 -262 -124t-203 -288q-35 -82 -35 -137q0 -72 66 -72q88 0 230.5 143.5t299.5 413.5l6 11l2 2l29 -17l21 -12l-9 -14q-131 -260 -165 -344q-35 -78 -35 -129q0 -39 37 -39 q57 0 184 97.5t303 285.5l43 -41q-379 -399 -530 -400q-45 0 -70 28t-25 69q0 61 39 151q-215 -262 -360 -262q-57 0 -90 37t-33 92zM541 1139l41 41l178 -179l-41 -40z" />
<glyph unicode="&#xe1;" d="M-2 90q0 68 41 160q74 176 221.5 311t294.5 135q78 0 139 -30l-26 -50q-43 23 -113 23q-129 0 -262 -124t-203 -288q-35 -82 -35 -137q0 -72 66 -72q88 0 230.5 143.5t299.5 413.5l6 11l2 2l29 -17l21 -12l-9 -14q-131 -260 -165 -344q-35 -78 -35 -129q0 -39 37 -39 q57 0 184 97.5t303 285.5l43 -41q-379 -399 -530 -400q-45 0 -70 28t-25 69q0 61 39 151q-215 -262 -360 -262q-57 0 -90 37t-33 92zM633 1014l235 92l21 -53l-236 -92z" />
<glyph unicode="&#xe2;" d="M-2 90q0 68 41 160q74 176 221.5 311t294.5 135q78 0 139 -30l-26 -50q-43 23 -113 23q-129 0 -262 -124t-203 -288q-35 -82 -35 -137q0 -72 66 -72q88 0 230.5 143.5t299.5 413.5l6 11l2 2l29 -17l21 -12l-9 -14q-131 -260 -165 -344q-35 -78 -35 -129q0 -39 37 -39 q57 0 184 97.5t303 285.5l43 -41q-379 -399 -530 -400q-45 0 -70 28t-25 69q0 61 39 151q-215 -262 -360 -262q-57 0 -90 37t-33 92zM547 1026l225 141l76 -153l-53 -25l-47 96l-173 -108z" />
<glyph unicode="&#xe3;" d="M-2 90q0 68 41 160q74 176 221.5 311t294.5 135q78 0 139 -30l-26 -50q-43 23 -113 23q-129 0 -262 -124t-203 -288q-35 -82 -35 -137q0 -72 66 -72q88 0 230.5 143.5t299.5 413.5l6 11l2 2l29 -17l21 -12l-9 -14q-131 -260 -165 -344q-35 -78 -35 -129q0 -39 37 -39 q57 0 184 97.5t303 285.5l43 -41q-379 -399 -530 -400q-45 0 -70 28t-25 69q0 61 39 151q-215 -262 -360 -262q-57 0 -90 37t-33 92zM512 1049q61 61 115 61q39 0 67.5 -26.5t49 -52t38.5 -25.5q8 0 15 2l-2 -2q33 12 88 67l41 -41q-68 -68 -113 -80l-2 -2q-10 -2 -27 -2 q-51 0 -95 52.5t-60 52.5q-29 0 -74 -45z" />
<glyph unicode="&#xe4;" d="M-2 90q0 68 41 160q74 176 221.5 311t294.5 135q78 0 139 -30l-26 -50q-43 23 -113 23q-129 0 -262 -124t-203 -288q-35 -82 -35 -137q0 -72 66 -72q88 0 230.5 143.5t299.5 413.5l6 11l2 2l29 -17l21 -12l-9 -14q-131 -260 -165 -344q-35 -78 -35 -129q0 -39 37 -39 q57 0 184 97.5t303 285.5l43 -41q-379 -399 -530 -400q-45 0 -70 28t-25 69q0 61 39 151q-215 -262 -360 -262q-57 0 -90 37t-33 92zM594 1034q16 21 51 101l53 -25q-43 -90 -59 -113zM756 1026l53 125l53 -21l-53 -124z" />
<glyph unicode="&#xe5;" d="M-2 90q0 68 41 160q74 176 221.5 311t294.5 135q78 0 139 -30l-26 -50q-43 23 -113 23q-129 0 -262 -124t-203 -288q-35 -82 -35 -137q0 -72 66 -72q88 0 230.5 143.5t299.5 413.5l6 11l2 2l29 -17l21 -12l-9 -14q-131 -260 -165 -344q-35 -78 -35 -129q0 -39 37 -39 q57 0 184 97.5t303 285.5l43 -41q-379 -399 -530 -400q-45 0 -70 28t-25 69q0 61 39 151q-215 -262 -360 -262q-57 0 -90 37t-33 92zM580 938q0 51 52 117.5t109 68.5v31q35 0 54.5 -23.5t19.5 -54.5q0 -61 -54.5 -134t-115.5 -73q-31 0 -48 21.5t-17 46.5zM637 938 q0 -10 8 -10q35 0 74 54t39 95q-1 17 -13 21v-31q-35 0 -71.5 -46t-36.5 -83z" />
<glyph unicode="&#xe6;" horiz-adv-x="946" d="M6 98q0 61 35 152q68 172 214 298t302 126q78 0 121 -39q59 39 113 39q39 0 65.5 -21.5t26.5 -56.5q0 -80 -126 -219t-290 -256q18 -88 92 -88q164 0 518 383l41 -41q-373 -399 -559 -400q-45 0 -84 29t-57 82q-188 -125 -283 -125q-61 0 -95 40t-34 97zM63 98 q0 -80 72 -80q86 0 271 127v19q0 84 38 178q55 145 187 258q-25 16 -74 16q-135 0 -268 -114.5t-195 -272.5q-31 -74 -31 -131zM463 186q145 109 253.5 229t108.5 181q0 20 -34 20q-74 0 -164 -97t-129 -197q-33 -84 -35 -136z" />
<glyph unicode="&#xe7;" horiz-adv-x="616" d="M-25 -195l33 50q20 -14 41 -15q37 0 76 38t59 99q-61 12 -96 61.5t-35 119.5q0 84 41 184q63 152 167 265.5t196 113.5q72 0 94 -74q14 23 35 37l32 -49q-47 -31 -73 -125l-4 -12l-56 12q14 72 15 90q0 63 -43 64q-72 0 -161 -102.5t-149 -242.5q-37 -82 -36 -161 q0 -127 112 -127q96 0 237.5 106.5t284.5 276.5l43 -37q-143 -168 -288.5 -279.5t-255.5 -122.5q-25 -84 -80 -138t-115 -54q-39 0 -74 22z" />
<glyph unicode="&#xe8;" horiz-adv-x="520" d="M49 113q0 115 76 293q49 117 119.5 203.5t122.5 86.5q35 0 53 -24.5t18 -53.5q0 -33 -14 -67q-70 -172 -252 -184q-66 -158 -66 -254q0 -84 56 -84q57 0 196 109.5t291 275.5l43 -37q-160 -176 -308 -291t-222 -115q-53 0 -83 40t-30 102zM199 428q125 23 172 145 q10 18 10 45q0 21 -14 21q-27 0 -76 -61.5t-92 -149.5zM346 1139l41 41l178 -179l-41 -40z" />
<glyph unicode="&#xe9;" horiz-adv-x="520" d="M49 113q0 115 76 293q49 117 119.5 203.5t122.5 86.5q35 0 53 -24.5t18 -53.5q0 -33 -14 -67q-70 -172 -252 -184q-66 -158 -66 -254q1 -84 56 -84q57 0 196.5 109.5t290.5 275.5l43 -37q-160 -176 -308 -291t-222 -115q-53 0 -83 40t-30 102zM199 428q125 23 172 145 q10 18 10 45q0 21 -14 21q-27 0 -76 -61.5t-92 -149.5zM440 1014l236 92l20 -53l-235 -92z" />
<glyph unicode="&#xea;" horiz-adv-x="520" d="M49 113q0 115 76 293q49 117 119.5 203.5t122.5 86.5q35 0 53 -24.5t18 -53.5q0 -33 -14 -67q-70 -172 -252 -184q-66 -158 -66 -254q0 -84 56 -84q57 0 196 109.5t291 275.5l43 -37q-160 -176 -308 -291t-222 -115q-53 0 -83 40t-30 102zM199 428q125 23 172 145 q10 18 10 45q0 21 -14 21q-27 0 -76 -61.5t-92 -149.5zM354 1026l226 141l75 -153l-53 -25l-47 96l-172 -108z" />
<glyph unicode="&#xeb;" horiz-adv-x="520" d="M49 113q0 115 76 293q49 117 119.5 203.5t122.5 86.5q35 0 53 -24.5t18 -53.5q0 -33 -14 -67q-70 -172 -252 -184q-66 -158 -66 -254q0 -84 56 -84q57 0 196 109.5t291 275.5l43 -37q-160 -176 -308 -291t-222 -115q-53 0 -83 40t-30 102zM199 428q125 23 172 145 q10 18 10 45q0 21 -14 21q-27 0 -76 -61.5t-92 -149.5zM401 1034q17 21 52 101l53 -25q-43 -90 -60 -113zM563 1026l53 125l54 -21l-54 -124z" />
<glyph unicode="&#xec;" horiz-adv-x="501" d="M55 68q0 68 47 176q23 55 64 137l-37 33q121 137 193 252l49 -29q-147 -254 -215 -416q-43 -94 -43 -153q0 -39 30 -39q57 0 194.5 110.5t293.5 276.5l43 -41q-166 -176 -311.5 -290t-219.5 -114q-41 0 -64.5 28t-23.5 69zM340 1139l41 41l178 -179l-41 -40z" />
<glyph unicode="&#xed;" horiz-adv-x="501" d="M55 68q0 68 47 176q23 55 64 137l-37 33q121 137 193 252l49 -29q-147 -254 -215 -416q-43 -94 -43 -153q-1 -39 30 -39q57 0 194.5 110.5t293.5 276.5l43 -41q-166 -176 -311.5 -290t-219.5 -114q-41 0 -64.5 28t-23.5 69zM434 1014l236 92l20 -53l-235 -92z" />
<glyph unicode="&#xee;" horiz-adv-x="501" d="M55 68q0 68 47 176q23 55 64 137l-37 33q121 137 193 252l49 -29q-147 -254 -215 -416q-43 -94 -43 -153q0 -39 30 -39q57 0 194.5 110.5t293.5 276.5l43 -41q-166 -176 -311.5 -290t-219.5 -114q-41 0 -64.5 28t-23.5 69zM348 1026l225 141l76 -153l-53 -25l-47 96 l-172 -108z" />
<glyph unicode="&#xef;" horiz-adv-x="501" d="M55 68q0 68 47 176q23 55 64 137l-37 33q121 137 193 252l49 -29q-147 -254 -215 -416q-43 -94 -43 -153q0 -39 30 -39q57 0 194.5 110.5t293.5 276.5l43 -41q-166 -176 -311.5 -290t-219.5 -114q-41 0 -64.5 28t-23.5 69zM393 1034q16 21 51 101l54 -25 q-43 -90 -60 -113zM555 1026l53 125l54 -21l-54 -124z" />
<glyph unicode="&#xf0;" horiz-adv-x="731" d="M33 119q0 82 49 198q70 172 208 277.5t298 105.5q39 0 96 -14l-14 -57q-53 14 -82 14q-143 0 -266 -95t-187 -251q-45 -100 -45 -178q0 -92 82 -92q123 0 310.5 224t308.5 513q59 141 104 268l-254 -63l-14 57l291 72q82 244 81 366q0 72 -24 72q-61 0 -153.5 -114.5 t-159.5 -272.5l-54 20q72 172 177.5 298t189.5 126q37 0 59.5 -35.5t22.5 -93.5q0 -123 -74 -350l66 16l14 -57l-102 -24q-47 -141 -117 -306q-127 -303 -328 -538.5t-344 -235.5q-63 0 -101 41t-38 109z" />
<glyph unicode="&#xf1;" horiz-adv-x="1130" d="M131 414q180 195 242 241q63 49 108 50q35 0 57.5 -24t22.5 -58q0 -57 -59 -195q-14 -37 -64 -143q303 395 416 395q33 0 53.5 -23.5t20.5 -54.5q0 -70 -80 -254q-100 -244 -100 -297q0 -18 16 -18q53 0 201 107.5t295 273.5l43 -37q-154 -176 -311.5 -289t-227.5 -113 q-31 0 -52.5 22.5t-21.5 53.5q0 66 107 320q74 174 73 231q0 20 -16 21q-49 0 -168 -130.5t-210 -252t-181 -250.5l-2 -4l-2 -2l-23 16l-26 14q29 49 106.5 215t100.5 222q55 123 55 172q0 25 -22.5 24.5t-50.5 -17t-76 -62.5t-78.5 -78.5t-104.5 -112.5zM614 1049 q61 61 115 61q39 0 67.5 -26.5t49 -52t39.5 -25.5q8 0 14 2l-2 -2q33 12 88 67l41 -41q-68 -68 -113 -80l-2 -2q-10 -2 -26 -2q-51 0 -95.5 52.5t-60.5 52.5q-29 0 -74 -45z" />
<glyph unicode="&#xf2;" horiz-adv-x="655" d="M43 131q0 84 47 201q61 145 168 261t203 116v-58q-76 0 -169 -104.5t-149 -235.5q-43 -100 -43 -180q0 -102 66 -102q90 0 213 151q-35 45 -35 117q0 96 59 244q31 76 80 131t86 55q33 0 50.5 -29.5t17.5 -70.5q0 -96 -59 -234q-39 -92 -113 -196h2q118 0 319 217l41 -37 q-213 -238 -360 -238q-25 0 -43 8q-143 -176 -258 -176q-55 0 -89 45t-34 115zM401 297q0 -49 15 -72q72 98 110 191q53 121 54 211q0 43 -11 43q-16 0 -51 -45t-61 -107q-56 -129 -56 -221zM469 1139l41 41l178 -179l-41 -40z" />
<glyph unicode="&#xf3;" horiz-adv-x="655" d="M43 131q0 84 47 201q61 145 168 261t203 116v-58q-76 0 -169 -104.5t-149 -235.5q-43 -100 -43 -180q0 -102 66 -102q90 0 213 151q-35 45 -35 117q0 96 59 244q31 76 80 131t86 55q33 0 50.5 -29.5t17.5 -70.5q0 -96 -59 -234q-39 -92 -113 -196h2q118 0 319 217l41 -37 q-213 -238 -360 -238q-25 0 -43 8q-143 -176 -258 -176q-55 0 -89 45t-34 115zM401 297q0 -49 15 -72q72 98 110 191q53 121 54 211q0 43 -11 43q-16 0 -51 -45t-61 -107q-56 -129 -56 -221zM563 1014l236 92l20 -53l-235 -92z" />
<glyph unicode="&#xf4;" horiz-adv-x="655" d="M43 131q0 84 47 201q61 145 168 261t203 116v-58q-76 0 -169 -104.5t-149 -235.5q-43 -100 -43 -180q0 -102 66 -102q90 0 213 151q-35 45 -35 117q0 96 59 244q31 76 80 131t86 55q33 0 50.5 -29.5t17.5 -70.5q0 -96 -59 -234q-39 -92 -113 -196h2q118 0 319 217l41 -37 q-213 -238 -360 -238q-25 0 -43 8q-143 -176 -258 -176q-55 0 -89 45t-34 115zM401 297q0 -49 15 -72q72 98 110 191q53 121 54 211q0 43 -11 43q-16 0 -51 -45t-61 -107q-56 -129 -56 -221zM477 1026l225 141l76 -153l-53 -25l-47 96l-172 -108z" />
<glyph unicode="&#xf5;" horiz-adv-x="655" d="M43 131q0 84 47 201q61 145 168 261t203 116v-58q-76 0 -169 -104.5t-149 -235.5q-43 -100 -43 -180q0 -102 66 -102q90 0 213 151q-35 45 -35 117q0 96 59 244q31 76 80 131t86 55q33 0 50.5 -29.5t17.5 -70.5q0 -96 -59 -234q-39 -92 -113 -196h2q119 0 319 217l41 -37 q-213 -238 -360 -238q-25 0 -43 8q-143 -176 -258 -176q-55 0 -89 45t-34 115zM401 297q0 -49 15 -72q72 98 110 191q53 121 54 211q0 43 -11 43q-16 0 -51 -45t-61 -107q-56 -129 -56 -221zM440 1049q61 61 115 61q39 0 67.5 -26.5t49 -52t39.5 -25.5q8 0 14 2l-2 -2 q33 12 88 67l41 -41q-68 -68 -113 -80l-2 -2q-10 -2 -26 -2q-51 0 -95.5 52.5t-60.5 52.5q-29 0 -74 -45z" />
<glyph unicode="&#xf6;" horiz-adv-x="655" d="M43 131q0 84 47 201q61 145 168 261t203 116v-58q-76 0 -169 -104.5t-149 -235.5q-43 -100 -43 -180q0 -102 66 -102q90 0 213 151q-35 45 -35 117q0 96 59 244q31 76 80 131t86 55q33 0 50.5 -29.5t17.5 -70.5q0 -96 -59 -234q-39 -92 -113 -196h2q118 0 319 217l41 -37 q-213 -238 -360 -238q-25 0 -43 8q-143 -176 -258 -176q-55 0 -89 45t-34 115zM401 297q0 -49 15 -72q72 98 110 191q53 121 54 211q0 43 -11 43q-16 0 -51 -45t-61 -107q-56 -129 -56 -221zM524 1034q16 21 51 101l54 -25q-43 -90 -60 -113zM686 1026l53 125l54 -21 l-54 -124z" />
<glyph unicode="&#xf7;" horiz-adv-x="628" d="M145 236v57l410 -6l-2 -58zM188 27q0 37 41.5 77.5t94.5 40.5l2 -45q18 -14 18 -37q0 -29 -30.5 -59.5t-69.5 -30.5q-23 0 -39.5 16.5t-16.5 37.5zM246 31q25 2 39 26v19q-35 -18 -39 -45zM391 524q0 33 36 68t87 35v-49q31 -16 31 -41q0 -23 -30.5 -46.5t-63.5 -23.5 q-25 0 -42.5 18.5t-17.5 38.5zM449 524h2q16 1 30 11v26q-33 -12 -32 -37z" />
<glyph unicode="&#xf8;" horiz-adv-x="655" d="M-315 -598l374 645q-16 37 -16 84q0 84 47 201q59 139 159.5 252.5t194.5 124.5l390 665l49 -28l-383 -656q41 37 69 37q33 0 50.5 -29.5t17.5 -70.5q0 -96 -59 -234q-39 -92 -113 -196h2q119 0 319 217l41 -37q-213 -238 -360 -238q-25 0 -43 8q-143 -176 -258 -176 q-39 0 -70 25l-362 -623zM100 117l303 520q-68 -33 -141.5 -127t-118.5 -199q-43 -100 -43 -180v-14zM125 45q16 -16 41 -16q90 0 213 151q-35 45 -35 117q0 82 41 195zM401 297q0 -49 15 -72q72 98 110 191q53 121 54 211q-1 43 -11 43q-16 0 -51 -45t-61 -107 q-55 -129 -56 -221z" />
<glyph unicode="&#xf9;" d="M82 70q0 72 68 235q12 29 40 90l-16 -18l-45 37q143 166 209 278l24 -14l25 -14l-10 -19q-135 -262 -174 -362q-63 -150 -64 -213q0 -41 35 -41q45 0 111.5 60.5t149.5 173t144.5 206.5t143.5 225l49 -28q-141 -256 -225 -451q-43 -98 -43 -149q0 -33 28 -33 q138 0 492 383l41 -41q-373 -399 -533 -400q-41 0 -63.5 26t-22.5 65q0 59 48 172l8 18q-211 -285 -328 -285q-43 0 -67.5 28t-24.5 71zM537 1139l41 41l178 -179l-41 -40z" />
<glyph unicode="&#xfa;" d="M82 70q0 72 68 235q12 29 40 90l-16 -18l-45 37q143 166 209 278l24 -14l25 -14l-10 -19q-135 -262 -174 -362q-63 -150 -64 -213q0 -41 35 -41q45 0 111.5 60.5t149.5 173t144.5 206.5t143.5 225l49 -28q-141 -256 -225 -451q-43 -98 -43 -149q0 -33 28 -33 q138 0 492 383l41 -41q-373 -399 -533 -400q-41 0 -63.5 26t-22.5 65q0 59 48 172l8 18q-211 -285 -328 -285q-43 0 -67.5 28t-24.5 71zM631 1014l235 92l21 -53l-236 -92z" />
<glyph unicode="&#xfb;" d="M82 70q0 72 68 235q12 29 40 90l-16 -18l-45 37q143 166 209 278l24 -14l25 -14l-10 -19q-135 -262 -174 -362q-63 -150 -64 -213q0 -41 35 -41q45 0 111.5 60.5t149.5 173t144.5 206.5t143.5 225l49 -28q-141 -256 -225 -451q-43 -98 -43 -149q0 -33 28 -33 q138 0 492 383l41 -41q-373 -399 -533 -400q-41 0 -63.5 26t-22.5 65q0 59 48 172l8 18q-211 -285 -328 -285q-43 0 -67.5 28t-24.5 71zM545 1026l225 141l76 -153l-53 -25l-48 96l-172 -108z" />
<glyph unicode="&#xfc;" d="M82 70q0 72 68 235q12 29 40 90l-16 -18l-45 37q143 166 209 278l24 -14l25 -14l-10 -19q-135 -262 -174 -362q-63 -150 -64 -213q0 -41 35 -41q45 0 111.5 60.5t149.5 173t144.5 206.5t143.5 225l49 -28q-141 -256 -225 -451q-43 -98 -43 -149q0 -33 28 -33 q138 0 492 383l41 -41q-373 -399 -533 -400q-41 0 -63.5 26t-22.5 65q0 59 48 172l8 18q-211 -285 -328 -285q-43 0 -67.5 28t-24.5 71zM592 1034q16 21 51 101l53 -25q-43 -90 -59 -113zM754 1026l53 125l53 -21l-53 -124z" />
<glyph unicode="&#xfd;" horiz-adv-x="1097" d="M43 -963q0 66 41 164q57 137 164.5 264t283.5 287l242 588q-260 -369 -399 -369q-35 0 -56.5 24.5t-21.5 59.5q0 59 43 150v-2q27 66 84 180.5t74 153.5q27 59 26 96q0 16 -12 16q-88 0 -340 -272l-41 37q270 293 381 293q31 0 50.5 -22.5t19.5 -51.5q0 -47 -31 -119 q-20 -51 -77.5 -163.5t-82.5 -168.5v-2q-37 -76 -37 -125q0 -27 21 -26q70 0 213 160.5t332 484.5l4 8l2 2l28 -16l21 -13l-6 -8q-41 -86 -93.5 -212t-125 -307t-115.5 -284q16 14 90 80t101.5 91.5t93 86t106.5 101.5t97.5 98.5t105.5 112.5l41 -37q-86 -96 -190.5 -198.5 t-163 -157t-184.5 -167t-148 -133.5q-152 -358 -268.5 -566t-198.5 -208q-35 0 -54.5 27t-19.5 63zM100 -963q1 -32 17 -32q92 0 360 616q-260 -250 -340 -440q-37 -88 -37 -144zM821 1024l236 92l20 -53l-235 -92z" />
<glyph unicode="&#xfe;" horiz-adv-x="706" d="M-301 -616q0 55 47 165q74 176 214 414t288 418q285 713 284 940q0 29 -8 43l54 22q12 -33 12 -65q0 -207 -232 -815q164 168 275 168q57 0 88 -40t31 -95q0 -61 -35 -146q-59 -145 -184 -253.5t-228 -108.5q-80 0 -123 41l-18 -43q-305 -707 -414 -707q-25 0 -38 19.5 t-13 42.5zM-244 -618q37 20 140.5 216.5t214.5 454.5l53 121q-242 -348 -365 -647q-43 -98 -43 -145zM182 72l39 41q27 -25 84 -25q84 0 195 97.5t166 228.5q29 70 28 125q0 78 -61 77q-125 0 -332 -256q-37 -96 -119 -288z" />
<glyph unicode="&#xff;" horiz-adv-x="1097" d="M43 -963q0 66 41 164q57 137 164.5 264t283.5 287l242 588q-260 -369 -399 -369q-35 0 -56.5 24.5t-21.5 59.5q0 59 43 150v-2q27 66 84 180.5t74 153.5q27 59 26 96q0 16 -12 16q-88 0 -340 -272l-41 37q270 293 381 293q31 0 50.5 -22.5t19.5 -51.5q0 -47 -31 -119 q-20 -51 -77.5 -163.5t-82.5 -168.5v-2q-37 -76 -37 -125q0 -27 21 -26q70 0 213 160.5t332 484.5l4 8l2 2l28 -16l21 -13l-6 -8q-41 -86 -93.5 -212t-125 -307t-115.5 -284q16 14 90 80t101.5 91.5t93 86t106.5 101.5t97.5 98.5t105.5 112.5l41 -37q-86 -96 -190.5 -198.5 t-163 -157t-184.5 -167t-148 -133.5q-152 -358 -268.5 -566t-198.5 -208q-35 0 -54.5 27t-19.5 63zM100 -963q1 -32 17 -32q92 0 360 616q-260 -250 -340 -440q-37 -88 -37 -144zM780 1044q16 21 51 101l54 -25q-43 -90 -60 -112zM942 1036l53 125l54 -20l-54 -125z" />
<glyph unicode="&#x152;" horiz-adv-x="2627" d="M924 342q0 250 149 619q164 387 443 671q-37 -2 -117 -2v58q96 0 180 6q154 145 303.5 225t257.5 80q55 0 87 -25.5t32 -58.5q0 -84 -173 -169t-484 -108q-307 -297 -476 -698q-145 -352 -145 -598q0 -334 266 -334q172 0 393.5 190.5t395.5 501.5q-59 -8 -129 -8 q-184 0 -272.5 91t-88.5 235q0 92 39 219q86 197 221.5 309.5t292.5 112.5q111 0 172.5 -67.5t61.5 -190.5q0 -176 -123 -477q-45 -102 -70 -152q322 53 608 184l23 -51q-310 -143 -664 -196q-182 -338 -424.5 -548t-435.5 -210q-162 0 -242.5 106.5t-80.5 284.5zM1589 37 q66 23 140 22q51 0 164.5 -16t185.5 -16q324 0 680 387l41 -37q-373 -408 -721 -408q-78 0 -191.5 16.5t-158.5 16.5q-59 0 -121 -18zM1604 1018q0 -268 303 -268q74 0 164 12q47 90 86 184q119 283 118 455q0 201 -176 201q-139 0 -260 -101.5t-201 -283.5 q-35 -109 -34 -199zM1673 1702q170 18 297 61t179.5 83t52.5 69q-1 27 -62 27q-88 0 -212 -62.5t-255 -177.5zM2245 1655q186 143 405.5 230t362.5 87q80 0 133 -32.5t59 -92.5l-57 -4q-6 72 -135 72q-137 0 -345 -83t-389 -222z" />
<glyph unicode="&#x153;" horiz-adv-x="917" d="M43 131q0 84 47 201q61 145 168 261t203 116v-58q-76 0 -169 -104.5t-149 -235.5q-43 -100 -43 -180q0 -102 66 -102q55 0 129 62.5t139 158.5q-74 33 -74 123q0 66 43 170q31 72 80 124t86 52q31 0 50.5 -28.5t19.5 -67.5v-19q76 92 131 92q33 0 54.5 -24.5t21.5 -57 t-23 -90.5q-33 -98 -121 -184t-178 -100q-20 -68 -20 -127q0 -84 55 -84q57 0 196.5 109.5t291.5 275.5l43 -37q-160 -176 -308.5 -291t-222.5 -115q-53 0 -83 40t-30 102q0 33 7 69q-160 -211 -287 -211q-55 0 -89 45t-34 115zM418 373q0 -59 47 -74q37 57 61 117 q55 125 56 207q0 39 -13 39q-16 0 -52 -42t-60 -100q-39 -86 -39 -147zM545 303q70 25 134 94.5t91 147.5q18 45 18 69.5t-18 24.5q-33 0 -92.5 -76t-102.5 -178q-4 -10 -15 -39t-15 -43z" />
<glyph unicode="&#x178;" horiz-adv-x="1724" d="M676 -985q0 133 67 299q154 365 590 506l285 749q-348 -618 -571 -618q-61 0 -94 42t-33 111q0 150 122 439l35 82q-186 53 -286.5 205.5t-100.5 357.5q0 199 90 414q63 154 189.5 275.5t279.5 121.5q129 0 196.5 -85t67.5 -228q0 -205 -133 -531q-6 -16 -223 -491 q49 -8 113 -9v-57q-74 0 -135 12l-39 -88q-119 -279 -119 -418q0 -96 70 -96q59 0 129.5 52.5t148.5 159t149.5 218t161.5 283.5t153.5 299t156.5 315q20 43 32.5 67.5t30 60.5t31.5 65l51 -25q-141 -287 -283.5 -623.5t-212 -522t-192.5 -517.5q150 39 323 54l5 -58 q-199 -16 -353 -61q-137 -362 -161 -418q-115 -266 -210.5 -399.5t-199.5 -133.5q-63 0 -97 54.5t-34 136.5zM733 -985q0 -133 74 -133q80 0 165 122.5t191 374.5q74 176 146 373q-377 -137 -512 -459q-63 -150 -64 -278zM748 1188q0 -193 90 -329t262 -183q29 61 109.5 236 t117.5 264q129 309 129 510q0 256 -207 256q-133 0 -245.5 -111t-169.5 -250q-86 -198 -86 -393zM1901 2187q8 11 53 103l53 -25q-43 -84 -61 -111zM2060 2183l56 125l53 -24l-55 -125z" />
<glyph unicode="&#x2c6;" horiz-adv-x="260" d="M340 1026l223 141l76 -153l-51 -25l-47 96l-172 -108z" />
<glyph unicode="&#x2dc;" horiz-adv-x="362" d="M346 1049q61 61 115 61q49 0 94 -52t63 -52h11q33 12 88 67l41 -41q-68 -68 -113 -80q-10 -4 -27 -4q-31 0 -57 16.5t-39.5 36t-30 36t-30.5 16.5q-29 0 -76 -45z" />
<glyph unicode="&#x2000;" horiz-adv-x="1167" />
<glyph unicode="&#x2001;" horiz-adv-x="2335" />
<glyph unicode="&#x2002;" horiz-adv-x="1167" />
<glyph unicode="&#x2003;" horiz-adv-x="2335" />
<glyph unicode="&#x2004;" horiz-adv-x="778" />
<glyph unicode="&#x2005;" horiz-adv-x="583" />
<glyph unicode="&#x2006;" horiz-adv-x="389" />
<glyph unicode="&#x2007;" horiz-adv-x="389" />
<glyph unicode="&#x2008;" horiz-adv-x="291" />
<glyph unicode="&#x2009;" horiz-adv-x="467" />
<glyph unicode="&#x200a;" horiz-adv-x="129" />
<glyph unicode="&#x2010;" horiz-adv-x="569" d="M152 360v58h350v-58h-350z" />
<glyph unicode="&#x2011;" horiz-adv-x="569" d="M152 360v58h350v-58h-350z" />
<glyph unicode="&#x2012;" horiz-adv-x="569" d="M152 360v58h350v-58h-350z" />
<glyph unicode="&#x2013;" horiz-adv-x="804" d="M152 360v58h585v-58h-585z" />
<glyph unicode="&#x2014;" horiz-adv-x="1146" d="M152 360v58h927v-58h-927z" />
<glyph unicode="&#x2018;" horiz-adv-x="266" d="M545 1145q0 90 91 241.5t202 204.5l24 -53q-96 -47 -178 -182t-82 -211v-6q2 -5 2 -9l-55 -8q-4 8 -4 23z" />
<glyph unicode="&#x2019;" horiz-adv-x="337" d="M496 1153q96 45 179 178t83 209q0 4 -1 10t-1 9l55 12q4 -12 4 -31q0 -90 -92 -238.5t-201 -201.5z" />
<glyph unicode="&#x201a;" horiz-adv-x="616" d="M-49 -252q231 156 371 402l49 -29q-145 -258 -387 -422z" />
<glyph unicode="&#x201c;" horiz-adv-x="403" d="M492 1130q12 94 108 248t201 211l26 -49q-92 -51 -180 -192.5t-98 -225.5zM721 1194q0 90 85 235.5t183 200.5l29 -49q-86 -47 -163 -178t-77 -209q0 -14 2 -18l-55 -17q-4 12 -4 35z" />
<glyph unicode="&#x201d;" horiz-adv-x="497" d="M496 1151q92 51 168.5 199.5t68.5 210.5l55 8q14 -76 -71.5 -242t-194.5 -225zM684 1192q92 51 180 191.5t101 226.5l57 -8q-14 -94 -110.5 -248t-198.5 -211z" />
<glyph unicode="&#x201e;" horiz-adv-x="843" d="M-49 -252q238 160 371 402l49 -29q-139 -252 -387 -422zM201 -231q217 150 356 381l49 -29q-146 -244 -373 -400z" />
<glyph unicode="&#x2022;" horiz-adv-x="366" d="M92 311q0 100 96.5 206t229.5 106v-58q-111 0 -189.5 -86t-78.5 -168q0 -57 51 -57q74 0 137 71.5t63 133.5q0 41 -45 41v57q47 0 75 -28.5t28 -69.5q0 -82 -81 -172t-177 -90q-49 0 -79 34.5t-30 79.5z" />
<glyph unicode="&#x2026;" horiz-adv-x="1021" d="M33 35q0 33 32.5 70.5t75.5 37.5v-22q31 -14 31 -45q0 -29 -28.5 -60.5t-61.5 -31.5q-20 0 -34.5 16t-14.5 35zM92 45q23 12 23 31q-15 -13 -23 -31zM115 76l8 -8v12zM379 8q0 37 35 81t80 44v-22q29 -12 28 -45q0 -31 -31.5 -70t-64.5 -39q-23 0 -35 17.5t-12 33.5z M438 23q18 18 27 38q-19 -15 -27 -38zM467 63q6 -6 8 -6v13zM733 16q0 33 39 74t84 41v-37q12 -12 12 -31q0 -29 -28.5 -60.5t-61.5 -31.5q-18 0 -31.5 15.5t-13.5 29.5zM791 16zM817 57l2 -2z" />
<glyph unicode="&#x202f;" horiz-adv-x="467" />
<glyph unicode="&#x2039;" horiz-adv-x="466" d="M266 322l27 8l-23 18l211 238l43 -37l-200 -227l51 -179l-53 -16z" />
<glyph unicode="&#x203a;" horiz-adv-x="466" d="M82 156l209 184l-10 225l57 4l10 -237l-29 -2l21 -21l-219 -194z" />
<glyph unicode="&#x205f;" horiz-adv-x="583" />
<glyph unicode="&#x20ac;" horiz-adv-x="735" d="M150 217v57h53l16 50q4 10 10 20l-32 2l2 57l59 -2q78 131 198 218.5t220 87.5q104 0 166 -58l-41 -43q-39 43 -125 43q-80 0 -179.5 -69.5t-170.5 -178.5h4q147 0 237 17l11 -56q-90 -18 -248 -18h-37q-8 -14 -21 -43l-10 -27l236 2v-57l-252 -2q-8 -33 -8 -65 q0 -123 143 -123q86 0 162 51l30 -49q-100 -59 -192 -60q-90 0 -145.5 48.5t-55.5 132.5q0 35 8 65h-38z" />
<glyph unicode="&#x2122;" horiz-adv-x="1875" d="M537 977q0 31 9 67.5t37.5 113.5t46 118t70.5 170h-147v57l315 -2l-2 -57h-106q-51 -123 -71.5 -173t-48.5 -122t-37 -108.5t-9 -63.5q0 -25 12 -34t45 -9v-57q-53 0 -83.5 25.5t-30.5 74.5zM725 1012l172 407v51q70 0 98 -102q166 221 332 221v-57q-53 0 -104 -31l8 -2 q-16 -45 -70.5 -171t-86.5 -217t-32 -138q0 -25 11 -25v-57q-33 0 -50.5 24.5t-17.5 57.5q0 29 9.5 70.5t31 100t36.5 97.5t46 112.5t41 96.5q-82 -70 -141 -162v-20q0 -96 -25 -158q-29 -66 -68 -66q-20 0 -31.5 19.5t-11.5 42.5q0 16 5 49q20 68 71 148q-2 35 -12 63 l-158 -375z" />
<glyph unicode="&#x25fc;" horiz-adv-x="716" d="M0 0v717h717v-717h-717z" />
<glyph unicode="&#xfb03;" horiz-adv-x="1540" d="M-371 -954q0 33 8.5 78t27 108t36.5 119.5t52 146.5t57.5 151.5t68.5 171t69.5 167t76 179.5t71.5 173q115 270 205 469t190.5 393.5t182.5 297t139 102.5q35 0 56.5 -25t21.5 -64q0 -68 -60 -210q-84 -199 -261 -446t-396 -480l-24 -58l-109 -258q20 -4 35 -4 q254 0 571 353q106 254 195.5 447.5t183.5 372.5t173 275.5t134 96.5q33 0 55.5 -25t22.5 -64q0 -70 -59 -210q-84 -199 -261.5 -447t-396.5 -479l-24 -58l-109 -258q6 0 18.5 -2t16.5 -2q256 0 573 357q119 135 193 252l49 -29q-147 -252 -215 -414q-43 -100 -43 -155 q0 -39 31 -39q57 0 194 109.5t295 277.5l41 -41q-166 -176 -311.5 -290t-218.5 -114q-41 0 -64.5 28t-23.5 69q0 66 47 176q20 55 49 110q-319 -354 -596 -354h-6q12 -57 12 -152q0 -307 -113 -573q-55 -125 -130.5 -226.5t-137.5 -101.5q-33 0 -52 29t-19 70 q0 68 31.5 184.5t113.5 324t127 317.5t162 390q-268 -262 -508 -262h-6q12 -57 12 -152q0 -303 -115 -571q-53 -123 -129 -226.5t-137 -103.5q-33 0 -52.5 29t-19.5 70zM-313 -954q0 -41 14 -41q37 0 102.5 93.5t112.5 199.5q109 268 109 550q0 90 -13 144 q-326 -778 -325 -946zM207 -954q0 -41 14 -41q37 0 102.5 93.5t112.5 199.5q109 262 109 550q0 94 -13 146q-326 -782 -325 -948zM244 537q397 453 534 786q55 133 56 190q-1 31 -21 31q-66 0 -221.5 -283.5t-347.5 -723.5zM551 35v2v-2zM764 537q397 453 534 786 q55 131 56 190q-1 31 -21 31q-66 0 -221.5 -283.5t-347.5 -723.5zM1192 395l14 -12zM1501 983q4 6 33 71.5t33 71.5l49 -28q0 -2 -31 -71t-35 -77z" />
<glyph unicode="&#xfb04;" horiz-adv-x="1517" d="M-371 -954q0 33 8.5 78t27 108t36.5 119.5t52 146.5t57.5 151.5t68.5 171t69.5 167t76 179.5t71.5 173q115 270 205 469t190.5 393.5t182.5 297t139 102.5q35 0 56.5 -25t21.5 -64q0 -68 -60 -210q-84 -199 -261 -446t-396 -480l-24 -58l-109 -258q20 -4 35 -4 q254 0 571 353q106 254 195.5 447.5t183.5 372.5t173 275.5t134 96.5q33 0 55.5 -25t22.5 -64q0 -70 -59 -210q-84 -199 -261.5 -447t-396.5 -479l-24 -58l-109 -258q6 0 18.5 -2t16.5 -2q254 0 569 351q51 147 199 505q276 707 436 707q35 0 54.5 -27.5t19.5 -66.5 q0 -96 -84 -291q-86 -201 -242.5 -439.5t-330.5 -416.5q-72 -211 -72 -299q0 -51 22 -51q55 0 196.5 112.5t285.5 272.5l41 -37q-150 -170 -300.5 -288t-222.5 -118q-37 0 -58.5 31t-21.5 78q0 72 39 205q-283 -285 -530 -285h-6q12 -57 12 -152q0 -307 -113 -573 q-55 -125 -130.5 -226.5t-137.5 -101.5q-33 0 -52 29t-19 70q0 68 31.5 184.5t113.5 324t127 317.5t162 390q-268 -262 -508 -262h-6q12 -57 12 -152q0 -303 -115 -571q-53 -123 -129 -226.5t-137 -103.5q-33 0 -52.5 29t-19.5 70zM-313 -954q0 -41 14 -41q37 0 102.5 93.5 t112.5 199.5q109 268 109 550q0 90 -13 144q-326 -778 -325 -946zM207 -954q0 -41 14 -41q37 0 102.5 93.5t112.5 199.5q109 262 109 550q0 94 -13 146q-326 -782 -325 -948zM244 537q397 453 534 786q55 133 56 190q-1 31 -21 31q-66 0 -221.5 -283.5t-347.5 -723.5z M551 35v2v-2zM764 537q397 453 534 786q55 131 56 190q-1 31 -21 31q-66 0 -221.5 -283.5t-347.5 -723.5zM1266 518q150 170 275.5 369.5t195.5 369.5q80 182 80 269q0 37 -17 37q-29 0 -79 -62.5t-132 -221.5t-172 -386q-98 -236 -151 -375z" />
</font>
</defs>
</svg>
